<?xml version="1.0" standalone="no"?>
<!DOCTYPE svg PUBLIC "-//W3C//DTD SVG 1.1//EN" "http://www.w3.org/Graphics/SVG/1.1/DTD/svg11.dtd">
<svg version="1.1" width="1200" height="422" onload="init(evt)" viewBox="0 0 1200 422" xmlns="http://www.w3.org/2000/svg" xmlns:xlink="http://www.w3.org/1999/xlink">
<!-- Flame graph stack visualization. See https://github.com/brendangregg/FlameGraph for latest version, and http://www.brendangregg.com/flamegraphs.html for examples. -->
<!-- NOTES:  -->
<defs>
	<linearGradient id="background" y1="0" y2="1" x1="0" x2="0" >
		<stop stop-color="#eeeeee" offset="5%" />
		<stop stop-color="#eeeeb0" offset="95%" />
	</linearGradient>
</defs>
<style type="text/css">
	text { font-family:Verdana; font-size:12px; fill:rgb(0,0,0); }
	#search, #ignorecase { opacity:0.1; cursor:pointer; }
	#search:hover, #search.show, #ignorecase:hover, #ignorecase.show { opacity:1; }
	#subtitle { text-anchor:middle; font-color:rgb(160,160,160); }
	#title { text-anchor:middle; font-size:17px}
	#unzoom { cursor:pointer; }
	#frames > *:hover { stroke:black; stroke-width:0.5; cursor:pointer; }
	.hide { display:none; }
	.parent { opacity:0.5; }
</style>
<script type="text/ecmascript">
<![CDATA[
	"use strict";
	var details, searchbtn, unzoombtn, matchedtxt, svg, searching, currentSearchTerm, ignorecase, ignorecaseBtn;
	function init(evt) {
		details = document.getElementById("details").firstChild;
		searchbtn = document.getElementById("search");
		ignorecaseBtn = document.getElementById("ignorecase");
		unzoombtn = document.getElementById("unzoom");
		matchedtxt = document.getElementById("matched");
		svg = document.getElementsByTagName("svg")[0];
		searching = 0;
		currentSearchTerm = null;

		// use GET parameters to restore a flamegraphs state.
		var params = get_params();
		if (params.x && params.y)
			zoom(find_group(document.querySelector('[x="' + params.x + '"][y="' + params.y + '"]')));
                if (params.s) search(params.s);
	}

	// event listeners
	window.addEventListener("click", function(e) {
		var target = find_group(e.target);
		if (target) {
			if (target.nodeName == "a") {
				if (e.ctrlKey === false) return;
				e.preventDefault();
			}
			if (target.classList.contains("parent")) unzoom(true);
			zoom(target);
			if (!document.querySelector('.parent')) {
				// we have basically done a clearzoom so clear the url
				var params = get_params();
				if (params.x) delete params.x;
				if (params.y) delete params.y;
				history.replaceState(null, null, parse_params(params));
				unzoombtn.classList.add("hide");
				return;
			}

			// set parameters for zoom state
			var el = target.querySelector("rect");
			if (el && el.attributes && el.attributes.y && el.attributes._orig_x) {
				var params = get_params()
				params.x = el.attributes._orig_x.value;
				params.y = el.attributes.y.value;
				history.replaceState(null, null, parse_params(params));
			}
		}
		else if (e.target.id == "unzoom") clearzoom();
		else if (e.target.id == "search") search_prompt();
		else if (e.target.id == "ignorecase") toggle_ignorecase();
	}, false)

	// mouse-over for info
	// show
	window.addEventListener("mouseover", function(e) {
		var target = find_group(e.target);
		if (target) details.nodeValue = "Function: " + g_to_text(target);
	}, false)

	// clear
	window.addEventListener("mouseout", function(e) {
		var target = find_group(e.target);
		if (target) details.nodeValue = ' ';
	}, false)

	// ctrl-F for search
	// ctrl-I to toggle case-sensitive search
	window.addEventListener("keydown",function (e) {
		if (e.keyCode === 114 || (e.ctrlKey && e.keyCode === 70)) {
			e.preventDefault();
			search_prompt();
		}
		else if (e.ctrlKey && e.keyCode === 73) {
			e.preventDefault();
			toggle_ignorecase();
		}
	}, false)

	// functions
	function get_params() {
		var params = {};
		var paramsarr = window.location.search.substr(1).split('&');
		for (var i = 0; i < paramsarr.length; ++i) {
			var tmp = paramsarr[i].split("=");
			if (!tmp[0] || !tmp[1]) continue;
			params[tmp[0]]  = decodeURIComponent(tmp[1]);
		}
		return params;
	}
	function parse_params(params) {
		var uri = "?";
		for (var key in params) {
			uri += key + '=' + encodeURIComponent(params[key]) + '&';
		}
		if (uri.slice(-1) == "&")
			uri = uri.substring(0, uri.length - 1);
		if (uri == '?')
			uri = window.location.href.split('?')[0];
		return uri;
	}
	function find_child(node, selector) {
		var children = node.querySelectorAll(selector);
		if (children.length) return children[0];
	}
	function find_group(node) {
		var parent = node.parentElement;
		if (!parent) return;
		if (parent.id == "frames") return node;
		return find_group(parent);
	}
	function orig_save(e, attr, val) {
		if (e.attributes["_orig_" + attr] != undefined) return;
		if (e.attributes[attr] == undefined) return;
		if (val == undefined) val = e.attributes[attr].value;
		e.setAttribute("_orig_" + attr, val);
	}
	function orig_load(e, attr) {
		if (e.attributes["_orig_"+attr] == undefined) return;
		e.attributes[attr].value = e.attributes["_orig_" + attr].value;
		e.removeAttribute("_orig_"+attr);
	}
	function g_to_text(e) {
		var text = find_child(e, "title").firstChild.nodeValue;
		return (text)
	}
	function g_to_func(e) {
		var func = g_to_text(e);
		// if there's any manipulation we want to do to the function
		// name before it's searched, do it here before returning.
		return (func);
	}
	function update_text(e) {
		var r = find_child(e, "rect");
		var t = find_child(e, "text");
		var w = parseFloat(r.attributes.width.value) -3;
		var txt = find_child(e, "title").textContent.replace(/\([^(]*\)$/,"");
		t.attributes.x.value = parseFloat(r.attributes.x.value) + 3;

		// Smaller than this size won't fit anything
		if (w < 2 * 12 * 0.59) {
			t.textContent = "";
			return;
		}

		t.textContent = txt;
		var sl = t.getSubStringLength(0, txt.length);
		// check if only whitespace or if we can fit the entire string into width w
		if (/^ *$/.test(txt) || sl < w)
			return;

		// this isn't perfect, but gives a good starting point
		// and avoids calling getSubStringLength too often
		var start = Math.floor((w/sl) * txt.length);
		for (var x = start; x > 0; x = x-2) {
			if (t.getSubStringLength(0, x + 2) <= w) {
				t.textContent = txt.substring(0, x) + "..";
				return;
			}
		}
		t.textContent = "";
	}

	// zoom
	function zoom_reset(e) {
		if (e.attributes != undefined) {
			orig_load(e, "x");
			orig_load(e, "width");
		}
		if (e.childNodes == undefined) return;
		for (var i = 0, c = e.childNodes; i < c.length; i++) {
			zoom_reset(c[i]);
		}
	}
	function zoom_child(e, x, ratio) {
		if (e.attributes != undefined) {
			if (e.attributes.x != undefined) {
				orig_save(e, "x");
				e.attributes.x.value = (parseFloat(e.attributes.x.value) - x - 10) * ratio + 10;
				if (e.tagName == "text")
					e.attributes.x.value = find_child(e.parentNode, "rect[x]").attributes.x.value + 3;
			}
			if (e.attributes.width != undefined) {
				orig_save(e, "width");
				e.attributes.width.value = parseFloat(e.attributes.width.value) * ratio;
			}
		}

		if (e.childNodes == undefined) return;
		for (var i = 0, c = e.childNodes; i < c.length; i++) {
			zoom_child(c[i], x - 10, ratio);
		}
	}
	function zoom_parent(e) {
		if (e.attributes) {
			if (e.attributes.x != undefined) {
				orig_save(e, "x");
				e.attributes.x.value = 10;
			}
			if (e.attributes.width != undefined) {
				orig_save(e, "width");
				e.attributes.width.value = parseInt(svg.width.baseVal.value) - (10 * 2);
			}
		}
		if (e.childNodes == undefined) return;
		for (var i = 0, c = e.childNodes; i < c.length; i++) {
			zoom_parent(c[i]);
		}
	}
	function zoom(node) {
		var attr = find_child(node, "rect").attributes;
		var width = parseFloat(attr.width.value);
		var xmin = parseFloat(attr.x.value);
		var xmax = parseFloat(xmin + width);
		var ymin = parseFloat(attr.y.value);
		var ratio = (svg.width.baseVal.value - 2 * 10) / width;

		// XXX: Workaround for JavaScript float issues (fix me)
		var fudge = 0.0001;

		unzoombtn.classList.remove("hide");

		var el = document.getElementById("frames").children;
		for (var i = 0; i < el.length; i++) {
			var e = el[i];
			var a = find_child(e, "rect").attributes;
			var ex = parseFloat(a.x.value);
			var ew = parseFloat(a.width.value);
			var upstack;
			// Is it an ancestor
			if (0 == 0) {
				upstack = parseFloat(a.y.value) > ymin;
			} else {
				upstack = parseFloat(a.y.value) < ymin;
			}
			if (upstack) {
				// Direct ancestor
				if (ex <= xmin && (ex+ew+fudge) >= xmax) {
					e.classList.add("parent");
					zoom_parent(e);
					update_text(e);
				}
				// not in current path
				else
					e.classList.add("hide");
			}
			// Children maybe
			else {
				// no common path
				if (ex < xmin || ex + fudge >= xmax) {
					e.classList.add("hide");
				}
				else {
					zoom_child(e, xmin, ratio);
					update_text(e);
				}
			}
		}
		search();
	}
	function unzoom(dont_update_text) {
		unzoombtn.classList.add("hide");
		var el = document.getElementById("frames").children;
		for(var i = 0; i < el.length; i++) {
			el[i].classList.remove("parent");
			el[i].classList.remove("hide");
			zoom_reset(el[i]);
			if(!dont_update_text) update_text(el[i]);
		}
		search();
	}
	function clearzoom() {
		unzoom();

		// remove zoom state
		var params = get_params();
		if (params.x) delete params.x;
		if (params.y) delete params.y;
		history.replaceState(null, null, parse_params(params));
	}

	// search
	function toggle_ignorecase() {
		ignorecase = !ignorecase;
		if (ignorecase) {
			ignorecaseBtn.classList.add("show");
		} else {
			ignorecaseBtn.classList.remove("show");
		}
		reset_search();
		search();
	}
	function reset_search() {
		var el = document.querySelectorAll("#frames rect");
		for (var i = 0; i < el.length; i++) {
			orig_load(el[i], "fill")
		}
		var params = get_params();
		delete params.s;
		history.replaceState(null, null, parse_params(params));
	}
	function search_prompt() {
		if (!searching) {
			var term = prompt("Enter a search term (regexp " +
			    "allowed, eg: ^ext4_)"
			    + (ignorecase ? ", ignoring case" : "")
			    + "\nPress Ctrl-i to toggle case sensitivity", "");
			if (term != null) search(term);
		} else {
			reset_search();
			searching = 0;
			currentSearchTerm = null;
			searchbtn.classList.remove("show");
			searchbtn.firstChild.nodeValue = "Search"
			matchedtxt.classList.add("hide");
			matchedtxt.firstChild.nodeValue = ""
		}
	}
	function search(term) {
		if (term) currentSearchTerm = term;

		var re = new RegExp(currentSearchTerm, ignorecase ? 'i' : '');
		var el = document.getElementById("frames").children;
		var matches = new Object();
		var maxwidth = 0;
		for (var i = 0; i < el.length; i++) {
			var e = el[i];
			var func = g_to_func(e);
			var rect = find_child(e, "rect");
			if (func == null || rect == null)
				continue;

			// Save max width. Only works as we have a root frame
			var w = parseFloat(rect.attributes.width.value);
			if (w > maxwidth)
				maxwidth = w;

			if (func.match(re)) {
				// highlight
				var x = parseFloat(rect.attributes.x.value);
				orig_save(rect, "fill");
				rect.attributes.fill.value = "rgb(230,0,230)";

				// remember matches
				if (matches[x] == undefined) {
					matches[x] = w;
				} else {
					if (w > matches[x]) {
						// overwrite with parent
						matches[x] = w;
					}
				}
				searching = 1;
			}
		}
		if (!searching)
			return;
		var params = get_params();
		params.s = currentSearchTerm;
		history.replaceState(null, null, parse_params(params));

		searchbtn.classList.add("show");
		searchbtn.firstChild.nodeValue = "Reset Search";

		// calculate percent matched, excluding vertical overlap
		var count = 0;
		var lastx = -1;
		var lastw = 0;
		var keys = Array();
		for (k in matches) {
			if (matches.hasOwnProperty(k))
				keys.push(k);
		}
		// sort the matched frames by their x location
		// ascending, then width descending
		keys.sort(function(a, b){
			return a - b;
		});
		// Step through frames saving only the biggest bottom-up frames
		// thanks to the sort order. This relies on the tree property
		// where children are always smaller than their parents.
		var fudge = 0.0001;	// JavaScript floating point
		for (var k in keys) {
			var x = parseFloat(keys[k]);
			var w = matches[keys[k]];
			if (x >= lastx + lastw - fudge) {
				count += w;
				lastx = x;
				lastw = w;
			}
		}
		// display matched percent
		matchedtxt.classList.remove("hide");
		var pct = 100 * count / maxwidth;
		if (pct != 100) pct = pct.toFixed(1)
		matchedtxt.firstChild.nodeValue = "Matched: " + pct + "%";
	}
]]>
</script>
<rect x="0.0" y="0" width="1200.0" height="422.0" fill="url(#background)"  />
<text id="title" x="600.00" y="24" >Flame Graph</text>
<text id="details" x="10.00" y="405" > </text>
<text id="unzoom" x="10.00" y="24" class="hide">Reset Zoom</text>
<text id="search" x="1090.00" y="24" >Search</text>
<text id="ignorecase" x="1174.00" y="24" >ic</text>
<text id="matched" x="1090.00" y="405" > </text>
<g id="frames">
<g >
<title>_int_free (359,120 samples, 0.02%)</title><rect x="15.7" y="325" width="0.2" height="15.0" fill="rgb(247,196,46)" rx="2" ry="2" />
<text  x="18.66" y="335.5" ></text>
</g>
<g >
<title>do_user_addr_fault (178,541 samples, 0.01%)</title><rect x="12.3" y="277" width="0.2" height="15.0" fill="rgb(228,108,25)" rx="2" ry="2" />
<text  x="15.33" y="287.5" ></text>
</g>
<g >
<title>_int_malloc (1,780,921 samples, 0.11%)</title><rect x="1185.4" y="341" width="1.3" height="15.0" fill="rgb(215,47,11)" rx="2" ry="2" />
<text  x="1188.44" y="351.5" ></text>
</g>
<g >
<title>sync_regs (266,195 samples, 0.02%)</title><rect x="1183.8" y="309" width="0.2" height="15.0" fill="rgb(228,106,25)" rx="2" ry="2" />
<text  x="1186.77" y="319.5" ></text>
</g>
<g >
<title>top-stencil (1,680,328,024 samples, 99.69%)</title><rect x="13.6" y="357" width="1176.4" height="15.0" fill="rgb(212,33,7)" rx="2" ry="2" />
<text  x="16.61" y="367.5" >top-stencil</text>
</g>
<g >
<title>do_syscall_64 (752,735 samples, 0.04%)</title><rect x="14.5" y="293" width="0.5" height="15.0" fill="rgb(209,20,4)" rx="2" ry="2" />
<text  x="17.50" y="303.5" ></text>
</g>
<g >
<title>free_pages_and_swap_cache (150,425 samples, 0.01%)</title><rect x="14.5" y="197" width="0.1" height="15.0" fill="rgb(222,82,19)" rx="2" ry="2" />
<text  x="17.51" y="207.5" ></text>
</g>
<g >
<title>release_pages (150,425 samples, 0.01%)</title><rect x="14.5" y="181" width="0.1" height="15.0" fill="rgb(228,106,25)" rx="2" ry="2" />
<text  x="17.51" y="191.5" ></text>
</g>
<g >
<title>do_mprotect_pkey (143,996 samples, 0.01%)</title><rect x="13.1" y="261" width="0.1" height="15.0" fill="rgb(252,218,52)" rx="2" ry="2" />
<text  x="16.07" y="271.5" ></text>
</g>
<g >
<title>asm_exc_page_fault (417,805 samples, 0.02%)</title><rect x="11.7" y="325" width="0.3" height="15.0" fill="rgb(225,93,22)" rx="2" ry="2" />
<text  x="14.73" y="335.5" ></text>
</g>
<g >
<title>cgroup_rstat_updated (175,174 samples, 0.01%)</title><rect x="1185.7" y="165" width="0.1" height="15.0" fill="rgb(244,180,43)" rx="2" ry="2" />
<text  x="1188.67" y="175.5" ></text>
</g>
<g >
<title>[unknown] (145,547 samples, 0.01%)</title><rect x="10.0" y="309" width="0.1" height="15.0" fill="rgb(210,24,5)" rx="2" ry="2" />
<text  x="13.03" y="319.5" ></text>
</g>
<g >
<title>hrtimer_nanosleep (301,421 samples, 0.02%)</title><rect x="1186.8" y="261" width="0.2" height="15.0" fill="rgb(237,147,35)" rx="2" ry="2" />
<text  x="1189.79" y="271.5" ></text>
</g>
<g >
<title>dl_open_worker_begin (357,004 samples, 0.02%)</title><rect x="1187.1" y="341" width="0.3" height="15.0" fill="rgb(233,129,31)" rx="2" ry="2" />
<text  x="1190.12" y="351.5" ></text>
</g>
<g >
<title>asm_sysvec_apic_timer_interrupt (427,646 samples, 0.03%)</title><rect x="1183.5" y="309" width="0.3" height="15.0" fill="rgb(232,127,30)" rx="2" ry="2" />
<text  x="1186.47" y="319.5" ></text>
</g>
<g >
<title>mesh_set_cell_kind (995,255 samples, 0.06%)</title><rect x="1189.2" y="341" width="0.7" height="15.0" fill="rgb(243,175,41)" rx="2" ry="2" />
<text  x="1192.18" y="351.5" ></text>
</g>
<g >
<title>do_nanosleep (288,084 samples, 0.02%)</title><rect x="1186.8" y="245" width="0.2" height="15.0" fill="rgb(253,220,52)" rx="2" ry="2" />
<text  x="1189.80" y="255.5" ></text>
</g>
<g >
<title>asm_exc_page_fault (1,620,610 samples, 0.10%)</title><rect x="1185.6" y="325" width="1.1" height="15.0" fill="rgb(225,93,22)" rx="2" ry="2" />
<text  x="1188.55" y="335.5" ></text>
</g>
<g >
<title>zap_pmd_range.isra.0 (366,508 samples, 0.02%)</title><rect x="14.6" y="165" width="0.3" height="15.0" fill="rgb(244,180,43)" rx="2" ry="2" />
<text  x="17.64" y="175.5" ></text>
</g>
<g >
<title>ksys_mmap_pgoff (194,105 samples, 0.01%)</title><rect x="1185.3" y="261" width="0.1" height="15.0" fill="rgb(245,185,44)" rx="2" ry="2" />
<text  x="1188.26" y="271.5" ></text>
</g>
<g >
<title>sysvec_apic_timer_interrupt (427,646 samples, 0.03%)</title><rect x="1183.5" y="293" width="0.3" height="15.0" fill="rgb(220,69,16)" rx="2" ry="2" />
<text  x="1186.47" y="303.5" ></text>
</g>
<g >
<title>unmap_page_range (366,508 samples, 0.02%)</title><rect x="14.6" y="181" width="0.3" height="15.0" fill="rgb(206,5,1)" rx="2" ry="2" />
<text  x="17.64" y="191.5" ></text>
</g>
<g >
<title>unmap_region (552,627 samples, 0.03%)</title><rect x="14.5" y="229" width="0.4" height="15.0" fill="rgb(219,64,15)" rx="2" ry="2" />
<text  x="17.51" y="239.5" ></text>
</g>
<g >
<title>schedule (215,372 samples, 0.01%)</title><rect x="1186.8" y="229" width="0.2" height="15.0" fill="rgb(254,229,54)" rx="2" ry="2" />
<text  x="1189.85" y="239.5" ></text>
</g>
<g >
<title>do_syscall_64 (194,105 samples, 0.01%)</title><rect x="1185.3" y="293" width="0.1" height="15.0" fill="rgb(209,20,4)" rx="2" ry="2" />
<text  x="1188.26" y="303.5" ></text>
</g>
<g >
<title>do_fault (374,627 samples, 0.02%)</title><rect x="11.8" y="229" width="0.2" height="15.0" fill="rgb(248,200,47)" rx="2" ry="2" />
<text  x="14.76" y="239.5" ></text>
</g>
<g >
<title>unmap_single_vma (366,508 samples, 0.02%)</title><rect x="14.6" y="197" width="0.3" height="15.0" fill="rgb(225,93,22)" rx="2" ry="2" />
<text  x="17.64" y="207.5" ></text>
</g>
<g >
<title>_dl_map_object_from_fd (169,483 samples, 0.01%)</title><rect x="1185.1" y="325" width="0.1" height="15.0" fill="rgb(249,205,49)" rx="2" ry="2" />
<text  x="1188.06" y="335.5" ></text>
</g>
<g >
<title>do_syscall_64 (143,996 samples, 0.01%)</title><rect x="13.1" y="293" width="0.1" height="15.0" fill="rgb(209,20,4)" rx="2" ry="2" />
<text  x="16.07" y="303.5" ></text>
</g>
<g >
<title>exc_page_fault (178,541 samples, 0.01%)</title><rect x="12.3" y="293" width="0.2" height="15.0" fill="rgb(212,35,8)" rx="2" ry="2" />
<text  x="15.33" y="303.5" ></text>
</g>
<g >
<title>__hrtimer_run_queues (427,646 samples, 0.03%)</title><rect x="1183.5" y="245" width="0.3" height="15.0" fill="rgb(237,150,35)" rx="2" ry="2" />
<text  x="1186.47" y="255.5" ></text>
</g>
<g >
<title>clear_page_erms (693,620 samples, 0.04%)</title><rect x="1186.1" y="165" width="0.5" height="15.0" fill="rgb(229,113,27)" rx="2" ry="2" />
<text  x="1189.08" y="175.5" ></text>
</g>
<g >
<title>asm_exc_page_fault (178,541 samples, 0.01%)</title><rect x="12.3" y="309" width="0.2" height="15.0" fill="rgb(225,93,22)" rx="2" ry="2" />
<text  x="15.33" y="319.5" ></text>
</g>
<g >
<title>init_meshes (1,617,339 samples, 0.10%)</title><rect x="1188.0" y="341" width="1.1" height="15.0" fill="rgb(216,53,12)" rx="2" ry="2" />
<text  x="1190.97" y="351.5" ></text>
</g>
<g >
<title>mem_cgroup_charge_statistics.constprop.0 (194,450 samples, 0.01%)</title><rect x="1185.7" y="181" width="0.1" height="15.0" fill="rgb(218,60,14)" rx="2" ry="2" />
<text  x="1188.65" y="191.5" ></text>
</g>
<g >
<title>do_anonymous_page (1,501,820 samples, 0.09%)</title><rect x="1185.6" y="229" width="1.1" height="15.0" fill="rgb(238,155,37)" rx="2" ry="2" />
<text  x="1188.61" y="239.5" ></text>
</g>
<g >
<title>hrtimer_interrupt (427,646 samples, 0.03%)</title><rect x="1183.5" y="261" width="0.3" height="15.0" fill="rgb(228,109,26)" rx="2" ry="2" />
<text  x="1186.47" y="271.5" ></text>
</g>
<g >
<title>entry_SYSCALL_64_after_hwframe (194,105 samples, 0.01%)</title><rect x="1185.3" y="309" width="0.1" height="15.0" fill="rgb(218,63,15)" rx="2" ry="2" />
<text  x="1188.26" y="319.5" ></text>
</g>
<g >
<title>handle_mm_fault (1,588,006 samples, 0.09%)</title><rect x="1185.6" y="277" width="1.1" height="15.0" fill="rgb(234,135,32)" rx="2" ry="2" />
<text  x="1188.56" y="287.5" ></text>
</g>
<g >
<title>common_nsleep (301,421 samples, 0.02%)</title><rect x="1186.8" y="277" width="0.2" height="15.0" fill="rgb(227,105,25)" rx="2" ry="2" />
<text  x="1189.79" y="287.5" ></text>
</g>
<g >
<title>[unknown] (1,671,521,993 samples, 99.17%)</title><rect x="13.8" y="341" width="1170.2" height="15.0" fill="rgb(210,24,5)" rx="2" ry="2" />
<text  x="16.81" y="351.5" >[unknown]</text>
</g>
<g >
<title>handle_pte_fault (1,522,576 samples, 0.09%)</title><rect x="1185.6" y="245" width="1.1" height="15.0" fill="rgb(217,57,13)" rx="2" ry="2" />
<text  x="1188.60" y="255.5" ></text>
</g>
<g >
<title>_dl_relocate_object (180,012 samples, 0.01%)</title><rect x="1187.2" y="325" width="0.1" height="15.0" fill="rgb(231,120,28)" rx="2" ry="2" />
<text  x="1190.15" y="335.5" ></text>
</g>
<g >
<title>__do_fault (349,328 samples, 0.02%)</title><rect x="11.8" y="213" width="0.2" height="15.0" fill="rgb(221,74,17)" rx="2" ry="2" />
<text  x="14.76" y="223.5" ></text>
</g>
<g >
<title>__do_sys_brk (743,299 samples, 0.04%)</title><rect x="14.5" y="261" width="0.5" height="15.0" fill="rgb(217,58,13)" rx="2" ry="2" />
<text  x="17.50" y="271.5" ></text>
</g>
<g >
<title>entry_SYSCALL_64_after_hwframe (143,996 samples, 0.01%)</title><rect x="13.1" y="309" width="0.1" height="15.0" fill="rgb(218,63,15)" rx="2" ry="2" />
<text  x="16.07" y="319.5" ></text>
</g>
<g >
<title>__GI___open64_nocancel (169,121 samples, 0.01%)</title><rect x="1184.9" y="325" width="0.1" height="15.0" fill="rgb(218,63,15)" rx="2" ry="2" />
<text  x="1187.87" y="335.5" ></text>
</g>
<g >
<title>do_mmap (194,105 samples, 0.01%)</title><rect x="1185.3" y="229" width="0.1" height="15.0" fill="rgb(228,107,25)" rx="2" ry="2" />
<text  x="1188.26" y="239.5" ></text>
</g>
<g >
<title>orted (5,149,899 samples, 0.31%)</title><rect x="10.0" y="357" width="3.6" height="15.0" fill="rgb(212,33,8)" rx="2" ry="2" />
<text  x="13.00" y="367.5" ></text>
</g>
<g >
<title>do_syscall_64 (479,987 samples, 0.03%)</title><rect x="1186.7" y="309" width="0.4" height="15.0" fill="rgb(209,20,4)" rx="2" ry="2" />
<text  x="1189.74" y="319.5" ></text>
</g>
<g >
<title>do_user_addr_fault (374,627 samples, 0.02%)</title><rect x="11.8" y="293" width="0.2" height="15.0" fill="rgb(228,108,25)" rx="2" ry="2" />
<text  x="14.76" y="303.5" ></text>
</g>
<g >
<title>handle_pte_fault (374,627 samples, 0.02%)</title><rect x="11.8" y="245" width="0.2" height="15.0" fill="rgb(217,57,13)" rx="2" ry="2" />
<text  x="14.76" y="255.5" ></text>
</g>
<g >
<title>_dl_map_object (905,410 samples, 0.05%)</title><rect x="1184.8" y="341" width="0.6" height="15.0" fill="rgb(248,199,47)" rx="2" ry="2" />
<text  x="1187.80" y="351.5" ></text>
</g>
<g >
<title>all (1,685,478,395 samples, 100%)</title><rect x="10.0" y="373" width="1180.0" height="15.0" fill="rgb(213,39,9)" rx="2" ry="2" />
<text  x="13.00" y="383.5" ></text>
</g>
<g >
<title>solve_jacobi (1,609,839,329 samples, 95.51%)</title><rect x="56.9" y="325" width="1127.1" height="15.0" fill="rgb(248,198,47)" rx="2" ry="2" />
<text  x="59.91" y="335.5" >solve_jacobi</text>
</g>
<g >
<title>vm_mmap_pgoff (194,105 samples, 0.01%)</title><rect x="1185.3" y="245" width="0.1" height="15.0" fill="rgb(237,150,35)" rx="2" ry="2" />
<text  x="1188.26" y="255.5" ></text>
</g>
<g >
<title>__x64_sys_mmap (194,105 samples, 0.01%)</title><rect x="1185.3" y="277" width="0.1" height="15.0" fill="rgb(223,83,19)" rx="2" ry="2" />
<text  x="1188.26" y="287.5" ></text>
</g>
<g >
<title>[unknown] (195,066 samples, 0.01%)</title><rect x="13.8" y="309" width="0.2" height="15.0" fill="rgb(210,24,5)" rx="2" ry="2" />
<text  x="16.84" y="319.5" ></text>
</g>
<g >
<title>__x64_sys_brk (743,299 samples, 0.04%)</title><rect x="14.5" y="277" width="0.5" height="15.0" fill="rgb(220,72,17)" rx="2" ry="2" />
<text  x="17.50" y="287.5" ></text>
</g>
<g >
<title>__cos_fma (584,593 samples, 0.03%)</title><rect x="1184.1" y="341" width="0.5" height="15.0" fill="rgb(233,130,31)" rx="2" ry="2" />
<text  x="1187.14" y="351.5" ></text>
</g>
<g >
<title>ondemand_readahead (318,604 samples, 0.02%)</title><rect x="11.8" y="165" width="0.2" height="15.0" fill="rgb(251,213,51)" rx="2" ry="2" />
<text  x="14.78" y="175.5" ></text>
</g>
<g >
<title>dl_open_worker_begin (456,248 samples, 0.03%)</title><rect x="12.8" y="341" width="0.4" height="15.0" fill="rgb(233,129,31)" rx="2" ry="2" />
<text  x="15.85" y="351.5" ></text>
</g>
<g >
<title>__handle_mm_fault (374,627 samples, 0.02%)</title><rect x="11.8" y="261" width="0.2" height="15.0" fill="rgb(207,9,2)" rx="2" ry="2" />
<text  x="14.76" y="271.5" ></text>
</g>
<g >
<title>tlb_finish_mmu (186,119 samples, 0.01%)</title><rect x="14.5" y="213" width="0.1" height="15.0" fill="rgb(251,212,50)" rx="2" ry="2" />
<text  x="17.51" y="223.5" ></text>
</g>
<g >
<title>__sysvec_apic_timer_interrupt (427,646 samples, 0.03%)</title><rect x="1183.5" y="277" width="0.3" height="15.0" fill="rgb(242,173,41)" rx="2" ry="2" />
<text  x="1186.47" y="287.5" ></text>
</g>
<g >
<title>_dl_relocate_object (202,015 samples, 0.01%)</title><rect x="12.9" y="325" width="0.2" height="15.0" fill="rgb(231,120,28)" rx="2" ry="2" />
<text  x="15.93" y="335.5" ></text>
</g>
<g >
<title>__memset_avx2_unaligned_erms (200,391 samples, 0.01%)</title><rect x="10.7" y="325" width="0.2" height="15.0" fill="rgb(223,84,20)" rx="2" ry="2" />
<text  x="13.75" y="335.5" ></text>
</g>
<g >
<title>exc_page_fault (1,620,610 samples, 0.10%)</title><rect x="1185.6" y="309" width="1.1" height="15.0" fill="rgb(212,35,8)" rx="2" ry="2" />
<text  x="1188.55" y="319.5" ></text>
</g>
<g >
<title>__alloc_pages (889,305 samples, 0.05%)</title><rect x="1186.0" y="197" width="0.6" height="15.0" fill="rgb(233,129,30)" rx="2" ry="2" />
<text  x="1189.02" y="207.5" ></text>
</g>
<g >
<title>exc_page_fault (374,627 samples, 0.02%)</title><rect x="11.8" y="309" width="0.2" height="15.0" fill="rgb(212,35,8)" rx="2" ry="2" />
<text  x="14.76" y="319.5" ></text>
</g>
<g >
<title>__handle_mm_fault (1,553,287 samples, 0.09%)</title><rect x="1185.6" y="261" width="1.1" height="15.0" fill="rgb(207,9,2)" rx="2" ry="2" />
<text  x="1188.58" y="271.5" ></text>
</g>
<g >
<title>_dl_map_object_from_fd (149,526 samples, 0.01%)</title><rect x="12.2" y="325" width="0.1" height="15.0" fill="rgb(249,205,49)" rx="2" ry="2" />
<text  x="15.22" y="335.5" ></text>
</g>
<g >
<title>mesh_copy_core (55,797,869 samples, 3.31%)</title><rect x="16.1" y="325" width="39.1" height="15.0" fill="rgb(207,12,2)" rx="2" ry="2" />
<text  x="19.12" y="335.5" >mes..</text>
</g>
<g >
<title>alloc_pages_vma (898,957 samples, 0.05%)</title><rect x="1186.0" y="213" width="0.6" height="15.0" fill="rgb(253,224,53)" rx="2" ry="2" />
<text  x="1189.02" y="223.5" ></text>
</g>
<g >
<title>unmap_vmas (366,508 samples, 0.02%)</title><rect x="14.6" y="213" width="0.3" height="15.0" fill="rgb(243,176,42)" rx="2" ry="2" />
<text  x="17.64" y="223.5" ></text>
</g>
<g >
<title>mmap64 (194,105 samples, 0.01%)</title><rect x="1185.3" y="325" width="0.1" height="15.0" fill="rgb(220,70,16)" rx="2" ry="2" />
<text  x="1188.26" y="335.5" ></text>
</g>
<g >
<title>setup_mesh_cell_values (2,124,805 samples, 0.13%)</title><rect x="55.4" y="325" width="1.5" height="15.0" fill="rgb(252,217,51)" rx="2" ry="2" />
<text  x="58.40" y="335.5" ></text>
</g>
<g >
<title>exc_nmi (152,726 samples, 0.01%)</title><rect x="1183.4" y="293" width="0.1" height="15.0" fill="rgb(239,159,38)" rx="2" ry="2" />
<text  x="1186.37" y="303.5" ></text>
</g>
<g >
<title>tlb_flush_mmu (255,020 samples, 0.02%)</title><rect x="14.7" y="133" width="0.2" height="15.0" fill="rgb(214,45,10)" rx="2" ry="2" />
<text  x="17.72" y="143.5" ></text>
</g>
<g >
<title>tick_sched_do_timer (197,646 samples, 0.01%)</title><rect x="1183.6" y="213" width="0.1" height="15.0" fill="rgb(227,104,25)" rx="2" ry="2" />
<text  x="1186.56" y="223.5" ></text>
</g>
<g >
<title>__brk (762,054 samples, 0.05%)</title><rect x="14.5" y="325" width="0.5" height="15.0" fill="rgb(225,94,22)" rx="2" ry="2" />
<text  x="17.49" y="335.5" ></text>
</g>
<g >
<title>_dl_map_object (664,920 samples, 0.04%)</title><rect x="12.1" y="341" width="0.5" height="15.0" fill="rgb(248,199,47)" rx="2" ry="2" />
<text  x="15.14" y="351.5" ></text>
</g>
<g >
<title>free_pages_and_swap_cache (207,971 samples, 0.01%)</title><rect x="14.7" y="117" width="0.2" height="15.0" fill="rgb(222,82,19)" rx="2" ry="2" />
<text  x="17.72" y="127.5" ></text>
</g>
<g >
<title>charge_memcg (361,399 samples, 0.02%)</title><rect x="1185.6" y="197" width="0.3" height="15.0" fill="rgb(242,170,40)" rx="2" ry="2" />
<text  x="1188.64" y="207.5" ></text>
</g>
<g >
<title>__x64_sys_clock_nanosleep (364,099 samples, 0.02%)</title><rect x="1186.8" y="293" width="0.2" height="15.0" fill="rgb(248,202,48)" rx="2" ry="2" />
<text  x="1189.75" y="303.5" ></text>
</g>
<g >
<title>[libstencil.so] (168,257 samples, 0.01%)</title><rect x="13.7" y="341" width="0.1" height="15.0" fill="rgb(238,152,36)" rx="2" ry="2" />
<text  x="16.67" y="351.5" ></text>
</g>
<g >
<title>do_user_addr_fault (1,599,974 samples, 0.09%)</title><rect x="1185.6" y="293" width="1.1" height="15.0" fill="rgb(228,108,25)" rx="2" ry="2" />
<text  x="1188.55" y="303.5" ></text>
</g>
<g >
<title>entry_SYSCALL_64_after_hwframe (514,016 samples, 0.03%)</title><rect x="1186.7" y="325" width="0.4" height="15.0" fill="rgb(218,63,15)" rx="2" ry="2" />
<text  x="1189.72" y="335.5" ></text>
</g>
<g >
<title>_dl_close (172,228 samples, 0.01%)</title><rect x="15.5" y="325" width="0.1" height="15.0" fill="rgb(242,174,41)" rx="2" ry="2" />
<text  x="18.49" y="335.5" ></text>
</g>
<g >
<title>asm_exc_nmi (152,726 samples, 0.01%)</title><rect x="1183.4" y="309" width="0.1" height="15.0" fill="rgb(252,217,52)" rx="2" ry="2" />
<text  x="1186.37" y="319.5" ></text>
</g>
<g >
<title>do_lookup_x (745,073 samples, 0.04%)</title><rect x="1187.4" y="341" width="0.5" height="15.0" fill="rgb(245,187,44)" rx="2" ry="2" />
<text  x="1190.37" y="351.5" ></text>
</g>
<g >
<title>filemap_fault (349,328 samples, 0.02%)</title><rect x="11.8" y="197" width="0.2" height="15.0" fill="rgb(219,68,16)" rx="2" ry="2" />
<text  x="14.76" y="207.5" ></text>
</g>
<g >
<title>do_lookup_x (307,010 samples, 0.02%)</title><rect x="13.2" y="341" width="0.2" height="15.0" fill="rgb(245,187,44)" rx="2" ry="2" />
<text  x="16.17" y="351.5" ></text>
</g>
<g >
<title>__mem_cgroup_charge (506,050 samples, 0.03%)</title><rect x="1185.6" y="213" width="0.4" height="15.0" fill="rgb(218,60,14)" rx="2" ry="2" />
<text  x="1188.62" y="223.5" ></text>
</g>
<g >
<title>page_cache_ra_unbounded (318,604 samples, 0.02%)</title><rect x="11.8" y="149" width="0.2" height="15.0" fill="rgb(234,134,32)" rx="2" ry="2" />
<text  x="14.78" y="159.5" ></text>
</g>
<g >
<title>[unknown] (1,871,067 samples, 0.11%)</title><rect x="10.0" y="341" width="1.3" height="15.0" fill="rgb(210,24,5)" rx="2" ry="2" />
<text  x="13.03" y="351.5" ></text>
</g>
<g >
<title>zap_pte_range (366,508 samples, 0.02%)</title><rect x="14.6" y="149" width="0.3" height="15.0" fill="rgb(231,120,28)" rx="2" ry="2" />
<text  x="17.64" y="159.5" ></text>
</g>
<g >
<title>free_unref_page_commit.constprop.0 (207,971 samples, 0.01%)</title><rect x="14.7" y="69" width="0.2" height="15.0" fill="rgb(233,130,31)" rx="2" ry="2" />
<text  x="17.72" y="79.5" ></text>
</g>
<g >
<title>_int_malloc (216,774 samples, 0.01%)</title><rect x="12.6" y="341" width="0.2" height="15.0" fill="rgb(215,47,11)" rx="2" ry="2" />
<text  x="15.61" y="351.5" ></text>
</g>
<g >
<title>release_pages (207,971 samples, 0.01%)</title><rect x="14.7" y="101" width="0.2" height="15.0" fill="rgb(228,106,25)" rx="2" ry="2" />
<text  x="17.72" y="111.5" ></text>
</g>
<g >
<title>__memset_avx2_unaligned_erms (568,980 samples, 0.03%)</title><rect x="11.6" y="341" width="0.4" height="15.0" fill="rgb(223,84,20)" rx="2" ry="2" />
<text  x="14.64" y="351.5" ></text>
</g>
<g >
<title>page_cache_async_ra (318,604 samples, 0.02%)</title><rect x="11.8" y="181" width="0.2" height="15.0" fill="rgb(210,24,5)" rx="2" ry="2" />
<text  x="14.78" y="191.5" ></text>
</g>
<g >
<title>entry_SYSCALL_64_after_hwframe (752,735 samples, 0.04%)</title><rect x="14.5" y="309" width="0.5" height="15.0" fill="rgb(218,63,15)" rx="2" ry="2" />
<text  x="17.50" y="319.5" ></text>
</g>
<g >
<title>get_page_from_freelist (889,305 samples, 0.05%)</title><rect x="1186.0" y="181" width="0.6" height="15.0" fill="rgb(252,218,52)" rx="2" ry="2" />
<text  x="1189.02" y="191.5" ></text>
</g>
<g >
<title>memset (178,541 samples, 0.01%)</title><rect x="12.3" y="325" width="0.2" height="15.0" fill="rgb(208,14,3)" rx="2" ry="2" />
<text  x="15.33" y="335.5" ></text>
</g>
<g >
<title>__do_munmap (552,627 samples, 0.03%)</title><rect x="14.5" y="245" width="0.4" height="15.0" fill="rgb(234,136,32)" rx="2" ry="2" />
<text  x="17.51" y="255.5" ></text>
</g>
<g >
<title>handle_mm_fault (374,627 samples, 0.02%)</title><rect x="11.8" y="277" width="0.2" height="15.0" fill="rgb(234,135,32)" rx="2" ry="2" />
<text  x="14.76" y="287.5" ></text>
</g>
<g >
<title>__schedule (198,939 samples, 0.01%)</title><rect x="1186.9" y="213" width="0.1" height="15.0" fill="rgb(227,103,24)" rx="2" ry="2" />
<text  x="1189.86" y="223.5" ></text>
</g>
<g >
<title>tick_sched_timer (303,720 samples, 0.02%)</title><rect x="1183.6" y="229" width="0.2" height="15.0" fill="rgb(254,227,54)" rx="2" ry="2" />
<text  x="1186.56" y="239.5" ></text>
</g>
<g >
<title>mprotect_fixup (143,996 samples, 0.01%)</title><rect x="13.1" y="245" width="0.1" height="15.0" fill="rgb(236,144,34)" rx="2" ry="2" />
<text  x="16.07" y="255.5" ></text>
</g>
<g >
<title>free_pcppages_bulk (207,971 samples, 0.01%)</title><rect x="14.7" y="53" width="0.2" height="15.0" fill="rgb(210,26,6)" rx="2" ry="2" />
<text  x="17.72" y="63.5" ></text>
</g>
<g >
<title>[libevent_core-2.1.so.7.0.1] (195,066 samples, 0.01%)</title><rect x="13.8" y="325" width="0.2" height="15.0" fill="rgb(221,77,18)" rx="2" ry="2" />
<text  x="16.84" y="335.5" ></text>
</g>
<g >
<title>[libevent_core-2.1.so.7.0.1] (145,547 samples, 0.01%)</title><rect x="10.0" y="325" width="0.1" height="15.0" fill="rgb(221,77,18)" rx="2" ry="2" />
<text  x="13.03" y="335.5" ></text>
</g>
<g >
<title>free_unref_page_list (207,971 samples, 0.01%)</title><rect x="14.7" y="85" width="0.2" height="15.0" fill="rgb(221,77,18)" rx="2" ry="2" />
<text  x="17.72" y="95.5" ></text>
</g>
<g >
<title>__sin_fma (192,753 samples, 0.01%)</title><rect x="1184.7" y="341" width="0.1" height="15.0" fill="rgb(251,211,50)" rx="2" ry="2" />
<text  x="1187.67" y="351.5" ></text>
</g>
<g >
<title>clock_nanosleep@GLIBC_2.2.5 (557,187 samples, 0.03%)</title><rect x="1186.7" y="341" width="0.4" height="15.0" fill="rgb(240,165,39)" rx="2" ry="2" />
<text  x="1189.71" y="351.5" ></text>
</g>
<g >
<title>mprotect (143,996 samples, 0.01%)</title><rect x="13.1" y="325" width="0.1" height="15.0" fill="rgb(241,169,40)" rx="2" ry="2" />
<text  x="16.07" y="335.5" ></text>
</g>
<g >
<title>__x64_sys_mprotect (143,996 samples, 0.01%)</title><rect x="13.1" y="277" width="0.1" height="15.0" fill="rgb(209,21,5)" rx="2" ry="2" />
<text  x="16.07" y="287.5" ></text>
</g>
<g >
<title>__free_one_page (207,971 samples, 0.01%)</title><rect x="14.7" y="37" width="0.2" height="15.0" fill="rgb(210,25,6)" rx="2" ry="2" />
<text  x="17.72" y="47.5" ></text>
</g>
</g>
</svg>
