<?xml version="1.0" standalone="no"?>
<!DOCTYPE svg PUBLIC "-//W3C//DTD SVG 1.1//EN" "http://www.w3.org/Graphics/SVG/1.1/DTD/svg11.dtd">
<svg version="1.1" width="1200" height="342" onload="init(evt)" viewBox="0 0 1200 342" xmlns="http://www.w3.org/2000/svg" xmlns:xlink="http://www.w3.org/1999/xlink">
<!-- Flame graph stack visualization. See https://github.com/brendangregg/FlameGraph for latest version, and http://www.brendangregg.com/flamegraphs.html for examples. -->
<!-- NOTES:  -->
<defs>
	<linearGradient id="background" y1="0" y2="1" x1="0" x2="0" >
		<stop stop-color="#eeeeee" offset="5%" />
		<stop stop-color="#eeeeb0" offset="95%" />
	</linearGradient>
</defs>
<style type="text/css">
	text { font-family:Verdana; font-size:12px; fill:rgb(0,0,0); }
	#search, #ignorecase { opacity:0.1; cursor:pointer; }
	#search:hover, #search.show, #ignorecase:hover, #ignorecase.show { opacity:1; }
	#subtitle { text-anchor:middle; font-color:rgb(160,160,160); }
	#title { text-anchor:middle; font-size:17px}
	#unzoom { cursor:pointer; }
	#frames > *:hover { stroke:black; stroke-width:0.5; cursor:pointer; }
	.hide { display:none; }
	.parent { opacity:0.5; }
</style>
<script type="text/ecmascript">
<![CDATA[
	"use strict";
	var details, searchbtn, unzoombtn, matchedtxt, svg, searching, currentSearchTerm, ignorecase, ignorecaseBtn;
	function init(evt) {
		details = document.getElementById("details").firstChild;
		searchbtn = document.getElementById("search");
		ignorecaseBtn = document.getElementById("ignorecase");
		unzoombtn = document.getElementById("unzoom");
		matchedtxt = document.getElementById("matched");
		svg = document.getElementsByTagName("svg")[0];
		searching = 0;
		currentSearchTerm = null;

		// use GET parameters to restore a flamegraphs state.
		var params = get_params();
		if (params.x && params.y)
			zoom(find_group(document.querySelector('[x="' + params.x + '"][y="' + params.y + '"]')));
                if (params.s) search(params.s);
	}

	// event listeners
	window.addEventListener("click", function(e) {
		var target = find_group(e.target);
		if (target) {
			if (target.nodeName == "a") {
				if (e.ctrlKey === false) return;
				e.preventDefault();
			}
			if (target.classList.contains("parent")) unzoom(true);
			zoom(target);
			if (!document.querySelector('.parent')) {
				// we have basically done a clearzoom so clear the url
				var params = get_params();
				if (params.x) delete params.x;
				if (params.y) delete params.y;
				history.replaceState(null, null, parse_params(params));
				unzoombtn.classList.add("hide");
				return;
			}

			// set parameters for zoom state
			var el = target.querySelector("rect");
			if (el && el.attributes && el.attributes.y && el.attributes._orig_x) {
				var params = get_params()
				params.x = el.attributes._orig_x.value;
				params.y = el.attributes.y.value;
				history.replaceState(null, null, parse_params(params));
			}
		}
		else if (e.target.id == "unzoom") clearzoom();
		else if (e.target.id == "search") search_prompt();
		else if (e.target.id == "ignorecase") toggle_ignorecase();
	}, false)

	// mouse-over for info
	// show
	window.addEventListener("mouseover", function(e) {
		var target = find_group(e.target);
		if (target) details.nodeValue = "Function: " + g_to_text(target);
	}, false)

	// clear
	window.addEventListener("mouseout", function(e) {
		var target = find_group(e.target);
		if (target) details.nodeValue = ' ';
	}, false)

	// ctrl-F for search
	// ctrl-I to toggle case-sensitive search
	window.addEventListener("keydown",function (e) {
		if (e.keyCode === 114 || (e.ctrlKey && e.keyCode === 70)) {
			e.preventDefault();
			search_prompt();
		}
		else if (e.ctrlKey && e.keyCode === 73) {
			e.preventDefault();
			toggle_ignorecase();
		}
	}, false)

	// functions
	function get_params() {
		var params = {};
		var paramsarr = window.location.search.substr(1).split('&');
		for (var i = 0; i < paramsarr.length; ++i) {
			var tmp = paramsarr[i].split("=");
			if (!tmp[0] || !tmp[1]) continue;
			params[tmp[0]]  = decodeURIComponent(tmp[1]);
		}
		return params;
	}
	function parse_params(params) {
		var uri = "?";
		for (var key in params) {
			uri += key + '=' + encodeURIComponent(params[key]) + '&';
		}
		if (uri.slice(-1) == "&")
			uri = uri.substring(0, uri.length - 1);
		if (uri == '?')
			uri = window.location.href.split('?')[0];
		return uri;
	}
	function find_child(node, selector) {
		var children = node.querySelectorAll(selector);
		if (children.length) return children[0];
	}
	function find_group(node) {
		var parent = node.parentElement;
		if (!parent) return;
		if (parent.id == "frames") return node;
		return find_group(parent);
	}
	function orig_save(e, attr, val) {
		if (e.attributes["_orig_" + attr] != undefined) return;
		if (e.attributes[attr] == undefined) return;
		if (val == undefined) val = e.attributes[attr].value;
		e.setAttribute("_orig_" + attr, val);
	}
	function orig_load(e, attr) {
		if (e.attributes["_orig_"+attr] == undefined) return;
		e.attributes[attr].value = e.attributes["_orig_" + attr].value;
		e.removeAttribute("_orig_"+attr);
	}
	function g_to_text(e) {
		var text = find_child(e, "title").firstChild.nodeValue;
		return (text)
	}
	function g_to_func(e) {
		var func = g_to_text(e);
		// if there's any manipulation we want to do to the function
		// name before it's searched, do it here before returning.
		return (func);
	}
	function update_text(e) {
		var r = find_child(e, "rect");
		var t = find_child(e, "text");
		var w = parseFloat(r.attributes.width.value) -3;
		var txt = find_child(e, "title").textContent.replace(/\([^(]*\)$/,"");
		t.attributes.x.value = parseFloat(r.attributes.x.value) + 3;

		// Smaller than this size won't fit anything
		if (w < 2 * 12 * 0.59) {
			t.textContent = "";
			return;
		}

		t.textContent = txt;
		var sl = t.getSubStringLength(0, txt.length);
		// check if only whitespace or if we can fit the entire string into width w
		if (/^ *$/.test(txt) || sl < w)
			return;

		// this isn't perfect, but gives a good starting point
		// and avoids calling getSubStringLength too often
		var start = Math.floor((w/sl) * txt.length);
		for (var x = start; x > 0; x = x-2) {
			if (t.getSubStringLength(0, x + 2) <= w) {
				t.textContent = txt.substring(0, x) + "..";
				return;
			}
		}
		t.textContent = "";
	}

	// zoom
	function zoom_reset(e) {
		if (e.attributes != undefined) {
			orig_load(e, "x");
			orig_load(e, "width");
		}
		if (e.childNodes == undefined) return;
		for (var i = 0, c = e.childNodes; i < c.length; i++) {
			zoom_reset(c[i]);
		}
	}
	function zoom_child(e, x, ratio) {
		if (e.attributes != undefined) {
			if (e.attributes.x != undefined) {
				orig_save(e, "x");
				e.attributes.x.value = (parseFloat(e.attributes.x.value) - x - 10) * ratio + 10;
				if (e.tagName == "text")
					e.attributes.x.value = find_child(e.parentNode, "rect[x]").attributes.x.value + 3;
			}
			if (e.attributes.width != undefined) {
				orig_save(e, "width");
				e.attributes.width.value = parseFloat(e.attributes.width.value) * ratio;
			}
		}

		if (e.childNodes == undefined) return;
		for (var i = 0, c = e.childNodes; i < c.length; i++) {
			zoom_child(c[i], x - 10, ratio);
		}
	}
	function zoom_parent(e) {
		if (e.attributes) {
			if (e.attributes.x != undefined) {
				orig_save(e, "x");
				e.attributes.x.value = 10;
			}
			if (e.attributes.width != undefined) {
				orig_save(e, "width");
				e.attributes.width.value = parseInt(svg.width.baseVal.value) - (10 * 2);
			}
		}
		if (e.childNodes == undefined) return;
		for (var i = 0, c = e.childNodes; i < c.length; i++) {
			zoom_parent(c[i]);
		}
	}
	function zoom(node) {
		var attr = find_child(node, "rect").attributes;
		var width = parseFloat(attr.width.value);
		var xmin = parseFloat(attr.x.value);
		var xmax = parseFloat(xmin + width);
		var ymin = parseFloat(attr.y.value);
		var ratio = (svg.width.baseVal.value - 2 * 10) / width;

		// XXX: Workaround for JavaScript float issues (fix me)
		var fudge = 0.0001;

		unzoombtn.classList.remove("hide");

		var el = document.getElementById("frames").children;
		for (var i = 0; i < el.length; i++) {
			var e = el[i];
			var a = find_child(e, "rect").attributes;
			var ex = parseFloat(a.x.value);
			var ew = parseFloat(a.width.value);
			var upstack;
			// Is it an ancestor
			if (0 == 0) {
				upstack = parseFloat(a.y.value) > ymin;
			} else {
				upstack = parseFloat(a.y.value) < ymin;
			}
			if (upstack) {
				// Direct ancestor
				if (ex <= xmin && (ex+ew+fudge) >= xmax) {
					e.classList.add("parent");
					zoom_parent(e);
					update_text(e);
				}
				// not in current path
				else
					e.classList.add("hide");
			}
			// Children maybe
			else {
				// no common path
				if (ex < xmin || ex + fudge >= xmax) {
					e.classList.add("hide");
				}
				else {
					zoom_child(e, xmin, ratio);
					update_text(e);
				}
			}
		}
		search();
	}
	function unzoom(dont_update_text) {
		unzoombtn.classList.add("hide");
		var el = document.getElementById("frames").children;
		for(var i = 0; i < el.length; i++) {
			el[i].classList.remove("parent");
			el[i].classList.remove("hide");
			zoom_reset(el[i]);
			if(!dont_update_text) update_text(el[i]);
		}
		search();
	}
	function clearzoom() {
		unzoom();

		// remove zoom state
		var params = get_params();
		if (params.x) delete params.x;
		if (params.y) delete params.y;
		history.replaceState(null, null, parse_params(params));
	}

	// search
	function toggle_ignorecase() {
		ignorecase = !ignorecase;
		if (ignorecase) {
			ignorecaseBtn.classList.add("show");
		} else {
			ignorecaseBtn.classList.remove("show");
		}
		reset_search();
		search();
	}
	function reset_search() {
		var el = document.querySelectorAll("#frames rect");
		for (var i = 0; i < el.length; i++) {
			orig_load(el[i], "fill")
		}
		var params = get_params();
		delete params.s;
		history.replaceState(null, null, parse_params(params));
	}
	function search_prompt() {
		if (!searching) {
			var term = prompt("Enter a search term (regexp " +
			    "allowed, eg: ^ext4_)"
			    + (ignorecase ? ", ignoring case" : "")
			    + "\nPress Ctrl-i to toggle case sensitivity", "");
			if (term != null) search(term);
		} else {
			reset_search();
			searching = 0;
			currentSearchTerm = null;
			searchbtn.classList.remove("show");
			searchbtn.firstChild.nodeValue = "Search"
			matchedtxt.classList.add("hide");
			matchedtxt.firstChild.nodeValue = ""
		}
	}
	function search(term) {
		if (term) currentSearchTerm = term;

		var re = new RegExp(currentSearchTerm, ignorecase ? 'i' : '');
		var el = document.getElementById("frames").children;
		var matches = new Object();
		var maxwidth = 0;
		for (var i = 0; i < el.length; i++) {
			var e = el[i];
			var func = g_to_func(e);
			var rect = find_child(e, "rect");
			if (func == null || rect == null)
				continue;

			// Save max width. Only works as we have a root frame
			var w = parseFloat(rect.attributes.width.value);
			if (w > maxwidth)
				maxwidth = w;

			if (func.match(re)) {
				// highlight
				var x = parseFloat(rect.attributes.x.value);
				orig_save(rect, "fill");
				rect.attributes.fill.value = "rgb(230,0,230)";

				// remember matches
				if (matches[x] == undefined) {
					matches[x] = w;
				} else {
					if (w > matches[x]) {
						// overwrite with parent
						matches[x] = w;
					}
				}
				searching = 1;
			}
		}
		if (!searching)
			return;
		var params = get_params();
		params.s = currentSearchTerm;
		history.replaceState(null, null, parse_params(params));

		searchbtn.classList.add("show");
		searchbtn.firstChild.nodeValue = "Reset Search";

		// calculate percent matched, excluding vertical overlap
		var count = 0;
		var lastx = -1;
		var lastw = 0;
		var keys = Array();
		for (k in matches) {
			if (matches.hasOwnProperty(k))
				keys.push(k);
		}
		// sort the matched frames by their x location
		// ascending, then width descending
		keys.sort(function(a, b){
			return a - b;
		});
		// Step through frames saving only the biggest bottom-up frames
		// thanks to the sort order. This relies on the tree property
		// where children are always smaller than their parents.
		var fudge = 0.0001;	// JavaScript floating point
		for (var k in keys) {
			var x = parseFloat(keys[k]);
			var w = matches[keys[k]];
			if (x >= lastx + lastw - fudge) {
				count += w;
				lastx = x;
				lastw = w;
			}
		}
		// display matched percent
		matchedtxt.classList.remove("hide");
		var pct = 100 * count / maxwidth;
		if (pct != 100) pct = pct.toFixed(1)
		matchedtxt.firstChild.nodeValue = "Matched: " + pct + "%";
	}
]]>
</script>
<rect x="0.0" y="0" width="1200.0" height="342.0" fill="url(#background)"  />
<text id="title" x="600.00" y="24" >Flame Graph</text>
<text id="details" x="10.00" y="325" > </text>
<text id="unzoom" x="10.00" y="24" class="hide">Reset Zoom</text>
<text id="search" x="1090.00" y="24" >Search</text>
<text id="ignorecase" x="1174.00" y="24" >ic</text>
<text id="matched" x="1090.00" y="325" > </text>
<g id="frames">
<g >
<title>__x64_sys_clock_nanosleep (268,706 samples, 0.04%)</title><rect x="14.9" y="213" width="0.5" height="15.0" fill="rgb(248,202,48)" rx="2" ry="2" />
<text  x="17.91" y="223.5" ></text>
</g>
<g >
<title>exit_to_user_mode_prepare (65,004 samples, 0.01%)</title><rect x="15.4" y="197" width="0.1" height="15.0" fill="rgb(228,108,25)" rx="2" ry="2" />
<text  x="18.36" y="207.5" ></text>
</g>
<g >
<title>__handle_mm_fault (854,286 samples, 0.12%)</title><rect x="71.5" y="181" width="1.4" height="15.0" fill="rgb(207,9,2)" rx="2" ry="2" />
<text  x="74.49" y="191.5" ></text>
</g>
<g >
<title>do_syscall_64 (69,734 samples, 0.01%)</title><rect x="12.8" y="213" width="0.2" height="15.0" fill="rgb(209,20,4)" rx="2" ry="2" />
<text  x="15.85" y="223.5" ></text>
</g>
<g >
<title>memset (118,764 samples, 0.02%)</title><rect x="14.4" y="245" width="0.2" height="15.0" fill="rgb(208,14,3)" rx="2" ry="2" />
<text  x="17.44" y="255.5" ></text>
</g>
<g >
<title>__cos_fma (125,682 samples, 0.02%)</title><rect x="13.1" y="261" width="0.2" height="15.0" fill="rgb(233,130,31)" rx="2" ry="2" />
<text  x="16.14" y="271.5" ></text>
</g>
<g >
<title>hrtimer_interrupt (162,758 samples, 0.02%)</title><rect x="1189.2" y="197" width="0.3" height="15.0" fill="rgb(228,109,26)" rx="2" ry="2" />
<text  x="1192.25" y="207.5" ></text>
</g>
<g >
<title>mesh_copy_core (34,026,561 samples, 4.70%)</title><rect x="15.8" y="261" width="55.5" height="15.0" fill="rgb(207,12,2)" rx="2" ry="2" />
<text  x="18.80" y="271.5" >mesh_..</text>
</g>
<g >
<title>get_mem_cgroup_from_mm (68,469 samples, 0.01%)</title><rect x="71.8" y="117" width="0.1" height="15.0" fill="rgb(218,61,14)" rx="2" ry="2" />
<text  x="74.78" y="127.5" ></text>
</g>
<g >
<title>exc_page_fault (76,983 samples, 0.01%)</title><rect x="14.4" y="213" width="0.2" height="15.0" fill="rgb(212,35,8)" rx="2" ry="2" />
<text  x="17.44" y="223.5" ></text>
</g>
<g >
<title>free_unref_page_list (228,578 samples, 0.03%)</title><rect x="13.5" y="101" width="0.3" height="15.0" fill="rgb(221,77,18)" rx="2" ry="2" />
<text  x="16.45" y="111.5" ></text>
</g>
<g >
<title>sysvec_apic_timer_interrupt (162,758 samples, 0.02%)</title><rect x="1189.2" y="229" width="0.3" height="15.0" fill="rgb(220,69,16)" rx="2" ry="2" />
<text  x="1192.25" y="239.5" ></text>
</g>
<g >
<title>__mod_lruvec_state (127,487 samples, 0.02%)</title><rect x="13.8" y="37" width="0.2" height="15.0" fill="rgb(226,100,24)" rx="2" ry="2" />
<text  x="16.82" y="47.5" ></text>
</g>
<g >
<title>____fput (69,734 samples, 0.01%)</title><rect x="12.8" y="133" width="0.2" height="15.0" fill="rgb(221,74,17)" rx="2" ry="2" />
<text  x="15.85" y="143.5" ></text>
</g>
<g >
<title>do_user_addr_fault (76,983 samples, 0.01%)</title><rect x="14.4" y="197" width="0.2" height="15.0" fill="rgb(228,108,25)" rx="2" ry="2" />
<text  x="17.44" y="207.5" ></text>
</g>
<g >
<title>_dl_close (97,674 samples, 0.01%)</title><rect x="12.4" y="245" width="0.1" height="15.0" fill="rgb(242,174,41)" rx="2" ry="2" />
<text  x="15.38" y="255.5" ></text>
</g>
<g >
<title>__x64_sys_munmap (356,065 samples, 0.05%)</title><rect x="13.5" y="213" width="0.5" height="15.0" fill="rgb(206,7,1)" rx="2" ry="2" />
<text  x="16.45" y="223.5" ></text>
</g>
<g >
<title>tlb_finish_mmu (228,578 samples, 0.03%)</title><rect x="13.5" y="149" width="0.3" height="15.0" fill="rgb(251,212,50)" rx="2" ry="2" />
<text  x="16.45" y="159.5" ></text>
</g>
<g >
<title>dequeue_task (66,364 samples, 0.01%)</title><rect x="15.1" y="117" width="0.1" height="15.0" fill="rgb(244,183,43)" rx="2" ry="2" />
<text  x="18.05" y="127.5" ></text>
</g>
<g >
<title>clear_page_erms (425,650 samples, 0.06%)</title><rect x="72.0" y="85" width="0.7" height="15.0" fill="rgb(229,113,27)" rx="2" ry="2" />
<text  x="74.98" y="95.5" ></text>
</g>
<g >
<title>[libpciaccess.so.0.11.1] (141,333 samples, 0.02%)</title><rect x="10.5" y="245" width="0.2" height="15.0" fill="rgb(222,80,19)" rx="2" ry="2" />
<text  x="13.51" y="255.5" ></text>
</g>
<g >
<title>update_process_times (162,758 samples, 0.02%)</title><rect x="1189.2" y="133" width="0.3" height="15.0" fill="rgb(250,209,50)" rx="2" ry="2" />
<text  x="1192.25" y="143.5" ></text>
</g>
<g >
<title>do_lookup_x (74,402 samples, 0.01%)</title><rect x="15.5" y="261" width="0.1" height="15.0" fill="rgb(245,187,44)" rx="2" ry="2" />
<text  x="18.49" y="271.5" ></text>
</g>
<g >
<title>do_syscall_64 (81,078 samples, 0.01%)</title><rect x="15.6" y="245" width="0.1" height="15.0" fill="rgb(209,20,4)" rx="2" ry="2" />
<text  x="18.61" y="255.5" ></text>
</g>
<g >
<title>unmap_region (356,065 samples, 0.05%)</title><rect x="13.5" y="165" width="0.5" height="15.0" fill="rgb(219,64,15)" rx="2" ry="2" />
<text  x="16.45" y="175.5" ></text>
</g>
<g >
<title>entry_SYSCALL_64_after_hwframe (69,734 samples, 0.01%)</title><rect x="12.8" y="229" width="0.2" height="15.0" fill="rgb(218,63,15)" rx="2" ry="2" />
<text  x="15.85" y="239.5" ></text>
</g>
<g >
<title>all (724,013,885 samples, 100%)</title><rect x="10.0" y="293" width="1180.0" height="15.0" fill="rgb(213,39,9)" rx="2" ry="2" />
<text  x="13.00" y="303.5" ></text>
</g>
<g >
<title>asm_exc_page_fault (913,478 samples, 0.13%)</title><rect x="71.4" y="245" width="1.5" height="15.0" fill="rgb(225,93,22)" rx="2" ry="2" />
<text  x="74.42" y="255.5" ></text>
</g>
<g >
<title>__x64_sys_exit_group (81,078 samples, 0.01%)</title><rect x="15.6" y="229" width="0.1" height="15.0" fill="rgb(214,42,10)" rx="2" ry="2" />
<text  x="18.61" y="239.5" ></text>
</g>
<g >
<title>zap_pte_range (127,487 samples, 0.02%)</title><rect x="13.8" y="85" width="0.2" height="15.0" fill="rgb(231,120,28)" rx="2" ry="2" />
<text  x="16.82" y="95.5" ></text>
</g>
<g >
<title>tick_sched_timer (162,758 samples, 0.02%)</title><rect x="1189.2" y="165" width="0.3" height="15.0" fill="rgb(254,227,54)" rx="2" ry="2" />
<text  x="1192.25" y="175.5" ></text>
</g>
<g >
<title>exit_mm (81,078 samples, 0.01%)</title><rect x="15.6" y="181" width="0.1" height="15.0" fill="rgb(236,144,34)" rx="2" ry="2" />
<text  x="18.61" y="191.5" ></text>
</g>
<g >
<title>__mod_lruvec_page_state (127,487 samples, 0.02%)</title><rect x="13.8" y="53" width="0.2" height="15.0" fill="rgb(245,185,44)" rx="2" ry="2" />
<text  x="16.82" y="63.5" ></text>
</g>
<g >
<title>__close (70,053 samples, 0.01%)</title><rect x="11.1" y="245" width="0.1" height="15.0" fill="rgb(236,145,34)" rx="2" ry="2" />
<text  x="14.13" y="255.5" ></text>
</g>
<g >
<title>entry_SYSCALL_64_after_hwframe (81,078 samples, 0.01%)</title><rect x="15.6" y="261" width="0.1" height="15.0" fill="rgb(218,63,15)" rx="2" ry="2" />
<text  x="18.61" y="271.5" ></text>
</g>
<g >
<title>unmap_page_range (127,487 samples, 0.02%)</title><rect x="13.8" y="117" width="0.2" height="15.0" fill="rgb(206,5,1)" rx="2" ry="2" />
<text  x="16.82" y="127.5" ></text>
</g>
<g >
<title>tlb_finish_mmu (81,078 samples, 0.01%)</title><rect x="15.6" y="133" width="0.1" height="15.0" fill="rgb(251,212,50)" rx="2" ry="2" />
<text  x="18.61" y="143.5" ></text>
</g>
<g >
<title>task_work_run (69,734 samples, 0.01%)</title><rect x="12.8" y="149" width="0.2" height="15.0" fill="rgb(209,22,5)" rx="2" ry="2" />
<text  x="15.85" y="159.5" ></text>
</g>
<g >
<title>__libc_openat64 (64,947 samples, 0.01%)</title><rect x="11.3" y="245" width="0.1" height="15.0" fill="rgb(209,21,5)" rx="2" ry="2" />
<text  x="14.34" y="255.5" ></text>
</g>
<g >
<title>tick_sched_handle (162,758 samples, 0.02%)</title><rect x="1189.2" y="149" width="0.3" height="15.0" fill="rgb(219,68,16)" rx="2" ry="2" />
<text  x="1192.25" y="159.5" ></text>
</g>
<g >
<title>handle_mm_fault (889,459 samples, 0.12%)</title><rect x="71.5" y="197" width="1.4" height="15.0" fill="rgb(234,135,32)" rx="2" ry="2" />
<text  x="74.45" y="207.5" ></text>
</g>
<g >
<title>__hrtimer_run_queues (162,758 samples, 0.02%)</title><rect x="1189.2" y="181" width="0.3" height="15.0" fill="rgb(237,150,35)" rx="2" ry="2" />
<text  x="1192.25" y="191.5" ></text>
</g>
<g >
<title>zap_pmd_range.isra.0 (127,487 samples, 0.02%)</title><rect x="13.8" y="101" width="0.2" height="15.0" fill="rgb(244,180,43)" rx="2" ry="2" />
<text  x="16.82" y="111.5" ></text>
</g>
<g >
<title>unmap_vmas (127,487 samples, 0.02%)</title><rect x="13.8" y="149" width="0.2" height="15.0" fill="rgb(243,176,42)" rx="2" ry="2" />
<text  x="16.82" y="159.5" ></text>
</g>
<g >
<title>entry_SYSCALL_64_after_hwframe (356,065 samples, 0.05%)</title><rect x="13.5" y="245" width="0.5" height="15.0" fill="rgb(218,63,15)" rx="2" ry="2" />
<text  x="16.45" y="255.5" ></text>
</g>
<g >
<title>handle_pte_fault (831,042 samples, 0.11%)</title><rect x="71.5" y="165" width="1.4" height="15.0" fill="rgb(217,57,13)" rx="2" ry="2" />
<text  x="74.51" y="175.5" ></text>
</g>
<g >
<title>__strcmp_avx2 (310,592 samples, 0.04%)</title><rect x="11.6" y="245" width="0.5" height="15.0" fill="rgb(239,159,38)" rx="2" ry="2" />
<text  x="14.55" y="255.5" ></text>
</g>
<g >
<title>__strcmp_avx2 (78,393 samples, 0.01%)</title><rect x="14.2" y="261" width="0.1" height="15.0" fill="rgb(239,159,38)" rx="2" ry="2" />
<text  x="17.18" y="271.5" ></text>
</g>
<g >
<title>common_nsleep (231,739 samples, 0.03%)</title><rect x="14.9" y="197" width="0.4" height="15.0" fill="rgb(227,105,25)" rx="2" ry="2" />
<text  x="17.95" y="207.5" ></text>
</g>
<g >
<title>charge_memcg (149,201 samples, 0.02%)</title><rect x="71.5" y="117" width="0.3" height="15.0" fill="rgb(242,170,40)" rx="2" ry="2" />
<text  x="74.54" y="127.5" ></text>
</g>
<g >
<title>__free_one_page (108,036 samples, 0.01%)</title><rect x="13.6" y="53" width="0.2" height="15.0" fill="rgb(210,25,6)" rx="2" ry="2" />
<text  x="16.65" y="63.5" ></text>
</g>
<g >
<title>do_syscall_64 (356,065 samples, 0.05%)</title><rect x="13.5" y="229" width="0.5" height="15.0" fill="rgb(209,20,4)" rx="2" ry="2" />
<text  x="16.45" y="239.5" ></text>
</g>
<g >
<title>[unknown] (1,795,139 samples, 0.25%)</title><rect x="10.1" y="261" width="2.9" height="15.0" fill="rgb(210,24,5)" rx="2" ry="2" />
<text  x="13.12" y="271.5" ></text>
</g>
<g >
<title>__mem_cgroup_charge (220,772 samples, 0.03%)</title><rect x="71.5" y="133" width="0.4" height="15.0" fill="rgb(218,60,14)" rx="2" ry="2" />
<text  x="74.54" y="143.5" ></text>
</g>
<g >
<title>free_pcppages_bulk (228,578 samples, 0.03%)</title><rect x="13.5" y="69" width="0.3" height="15.0" fill="rgb(210,26,6)" rx="2" ry="2" />
<text  x="16.45" y="79.5" ></text>
</g>
<g >
<title>__schedule (169,172 samples, 0.02%)</title><rect x="15.1" y="133" width="0.2" height="15.0" fill="rgb(227,103,24)" rx="2" ry="2" />
<text  x="18.05" y="143.5" ></text>
</g>
<g >
<title>release_pages (228,578 samples, 0.03%)</title><rect x="13.5" y="117" width="0.3" height="15.0" fill="rgb(228,106,25)" rx="2" ry="2" />
<text  x="16.45" y="127.5" ></text>
</g>
<g >
<title>do_syscall_64 (336,773 samples, 0.05%)</title><rect x="14.9" y="229" width="0.6" height="15.0" fill="rgb(209,20,4)" rx="2" ry="2" />
<text  x="17.91" y="239.5" ></text>
</g>
<g >
<title>__alloc_pages (538,433 samples, 0.07%)</title><rect x="71.9" y="117" width="0.9" height="15.0" fill="rgb(233,129,30)" rx="2" ry="2" />
<text  x="74.91" y="127.5" ></text>
</g>
<g >
<title>exit_to_user_mode_prepare (69,734 samples, 0.01%)</title><rect x="12.8" y="181" width="0.2" height="15.0" fill="rgb(228,108,25)" rx="2" ry="2" />
<text  x="15.85" y="191.5" ></text>
</g>
<g >
<title>free_unref_page_commit.constprop.0 (228,578 samples, 0.03%)</title><rect x="13.5" y="85" width="0.3" height="15.0" fill="rgb(233,130,31)" rx="2" ry="2" />
<text  x="16.45" y="95.5" ></text>
</g>
<g >
<title>syscall_exit_to_user_mode (65,004 samples, 0.01%)</title><rect x="15.4" y="213" width="0.1" height="15.0" fill="rgb(251,211,50)" rx="2" ry="2" />
<text  x="18.36" y="223.5" ></text>
</g>
<g >
<title>native_sched_clock (162,758 samples, 0.02%)</title><rect x="1189.2" y="53" width="0.3" height="15.0" fill="rgb(218,64,15)" rx="2" ry="2" />
<text  x="1192.25" y="63.5" ></text>
</g>
<g >
<title>setup_mesh_cell_values (1,013,136 samples, 0.14%)</title><rect x="71.3" y="261" width="1.6" height="15.0" fill="rgb(252,217,51)" rx="2" ry="2" />
<text  x="74.28" y="271.5" ></text>
</g>
<g >
<title>dequeue_task_fair (63,511 samples, 0.01%)</title><rect x="15.1" y="101" width="0.1" height="15.0" fill="rgb(230,119,28)" rx="2" ry="2" />
<text  x="18.05" y="111.5" ></text>
</g>
<g >
<title>unmap_single_vma (127,487 samples, 0.02%)</title><rect x="13.8" y="133" width="0.2" height="15.0" fill="rgb(225,93,22)" rx="2" ry="2" />
<text  x="16.82" y="143.5" ></text>
</g>
<g >
<title>exc_page_fault (913,478 samples, 0.13%)</title><rect x="71.4" y="229" width="1.5" height="15.0" fill="rgb(212,35,8)" rx="2" ry="2" />
<text  x="74.42" y="239.5" ></text>
</g>
<g >
<title>__mod_zone_page_state (108,036 samples, 0.01%)</title><rect x="13.6" y="37" width="0.2" height="15.0" fill="rgb(221,74,17)" rx="2" ry="2" />
<text  x="16.65" y="47.5" ></text>
</g>
<g >
<title>sched_clock (162,758 samples, 0.02%)</title><rect x="1189.2" y="69" width="0.3" height="15.0" fill="rgb(212,33,7)" rx="2" ry="2" />
<text  x="1192.25" y="79.5" ></text>
</g>
<g >
<title>top-stencil (724,013,510 samples, 100.00%)</title><rect x="10.0" y="277" width="1180.0" height="15.0" fill="rgb(212,33,7)" rx="2" ry="2" />
<text  x="13.00" y="287.5" >top-stencil</text>
</g>
<g >
<title>handle_mm_fault (76,983 samples, 0.01%)</title><rect x="14.4" y="181" width="0.2" height="15.0" fill="rgb(234,135,32)" rx="2" ry="2" />
<text  x="17.44" y="191.5" ></text>
</g>
<g >
<title>asm_exc_page_fault (76,983 samples, 0.01%)</title><rect x="14.4" y="229" width="0.2" height="15.0" fill="rgb(225,93,22)" rx="2" ry="2" />
<text  x="17.44" y="239.5" ></text>
</g>
<g >
<title>update_rq_clock (162,758 samples, 0.02%)</title><rect x="1189.2" y="101" width="0.3" height="15.0" fill="rgb(231,119,28)" rx="2" ry="2" />
<text  x="1192.25" y="111.5" ></text>
</g>
<g >
<title>free_swap_cache (81,078 samples, 0.01%)</title><rect x="15.6" y="117" width="0.1" height="15.0" fill="rgb(244,180,43)" rx="2" ry="2" />
<text  x="18.61" y="127.5" ></text>
</g>
<g >
<title>do_anonymous_page (807,195 samples, 0.11%)</title><rect x="71.5" y="149" width="1.3" height="15.0" fill="rgb(238,155,37)" rx="2" ry="2" />
<text  x="74.53" y="159.5" ></text>
</g>
<g >
<title>_dl_map_object (248,987 samples, 0.03%)</title><rect x="14.3" y="261" width="0.4" height="15.0" fill="rgb(248,199,47)" rx="2" ry="2" />
<text  x="17.33" y="271.5" ></text>
</g>
<g >
<title>syscall_exit_to_user_mode (69,734 samples, 0.01%)</title><rect x="12.8" y="197" width="0.2" height="15.0" fill="rgb(251,211,50)" rx="2" ry="2" />
<text  x="15.85" y="207.5" ></text>
</g>
<g >
<title>asm_sysvec_apic_timer_interrupt (162,758 samples, 0.02%)</title><rect x="1189.2" y="245" width="0.3" height="15.0" fill="rgb(232,127,30)" rx="2" ry="2" />
<text  x="1192.25" y="255.5" ></text>
</g>
<g >
<title>exit_mmap (81,078 samples, 0.01%)</title><rect x="15.6" y="149" width="0.1" height="15.0" fill="rgb(236,143,34)" rx="2" ry="2" />
<text  x="18.61" y="159.5" ></text>
</g>
<g >
<title>do_user_addr_fault (912,333 samples, 0.13%)</title><rect x="71.4" y="213" width="1.5" height="15.0" fill="rgb(228,108,25)" rx="2" ry="2" />
<text  x="74.42" y="223.5" ></text>
</g>
<g >
<title>sync_regs (206,042 samples, 0.03%)</title><rect x="1189.5" y="245" width="0.3" height="15.0" fill="rgb(228,106,25)" rx="2" ry="2" />
<text  x="1192.51" y="255.5" ></text>
</g>
<g >
<title>free_pages_and_swap_cache (228,578 samples, 0.03%)</title><rect x="13.5" y="133" width="0.3" height="15.0" fill="rgb(222,82,19)" rx="2" ry="2" />
<text  x="16.45" y="143.5" ></text>
</g>
<g >
<title>mmput (81,078 samples, 0.01%)</title><rect x="15.6" y="165" width="0.1" height="15.0" fill="rgb(226,99,23)" rx="2" ry="2" />
<text  x="18.61" y="175.5" ></text>
</g>
<g >
<title>__do_munmap (356,065 samples, 0.05%)</title><rect x="13.5" y="181" width="0.5" height="15.0" fill="rgb(234,136,32)" rx="2" ry="2" />
<text  x="16.45" y="191.5" ></text>
</g>
<g >
<title>__fput (69,734 samples, 0.01%)</title><rect x="12.8" y="117" width="0.2" height="15.0" fill="rgb(248,200,47)" rx="2" ry="2" />
<text  x="15.85" y="127.5" ></text>
</g>
<g >
<title>__munmap (356,065 samples, 0.05%)</title><rect x="13.5" y="261" width="0.5" height="15.0" fill="rgb(211,29,7)" rx="2" ry="2" />
<text  x="16.45" y="271.5" ></text>
</g>
<g >
<title>solve_jacobi_CB (685,305,248 samples, 94.65%)</title><rect x="72.9" y="261" width="1116.9" height="15.0" fill="rgb(225,93,22)" rx="2" ry="2" />
<text  x="75.93" y="271.5" >solve_jacobi_CB</text>
</g>
<g >
<title>mem_cgroup_charge_statistics.constprop.0 (88,026 samples, 0.01%)</title><rect x="71.6" y="101" width="0.1" height="15.0" fill="rgb(218,60,14)" rx="2" ry="2" />
<text  x="74.58" y="111.5" ></text>
</g>
<g >
<title>__handle_mm_fault (76,983 samples, 0.01%)</title><rect x="14.4" y="165" width="0.2" height="15.0" fill="rgb(207,9,2)" rx="2" ry="2" />
<text  x="17.44" y="175.5" ></text>
</g>
<g >
<title>__vm_munmap (356,065 samples, 0.05%)</title><rect x="13.5" y="197" width="0.5" height="15.0" fill="rgb(231,121,28)" rx="2" ry="2" />
<text  x="16.45" y="207.5" ></text>
</g>
<g >
<title>page_remove_rmap (127,487 samples, 0.02%)</title><rect x="13.8" y="69" width="0.2" height="15.0" fill="rgb(252,219,52)" rx="2" ry="2" />
<text  x="16.82" y="79.5" ></text>
</g>
<g >
<title>get_page_from_freelist (520,930 samples, 0.07%)</title><rect x="71.9" y="101" width="0.9" height="15.0" fill="rgb(252,218,52)" rx="2" ry="2" />
<text  x="74.94" y="111.5" ></text>
</g>
<g >
<title>entry_SYSCALL_64_after_hwframe (360,683 samples, 0.05%)</title><rect x="14.9" y="245" width="0.6" height="15.0" fill="rgb(218,63,15)" rx="2" ry="2" />
<text  x="17.87" y="255.5" ></text>
</g>
<g >
<title>hrtimer_nanosleep (231,739 samples, 0.03%)</title><rect x="14.9" y="181" width="0.4" height="15.0" fill="rgb(237,147,35)" rx="2" ry="2" />
<text  x="17.95" y="191.5" ></text>
</g>
<g >
<title>do_nanosleep (226,411 samples, 0.03%)</title><rect x="15.0" y="165" width="0.3" height="15.0" fill="rgb(253,220,52)" rx="2" ry="2" />
<text  x="17.96" y="175.5" ></text>
</g>
<g >
<title>alloc_pages_vma (551,135 samples, 0.08%)</title><rect x="71.9" y="133" width="0.9" height="15.0" fill="rgb(253,224,53)" rx="2" ry="2" />
<text  x="74.90" y="143.5" ></text>
</g>
<g >
<title>strcmp (88,085 samples, 0.01%)</title><rect x="1189.8" y="261" width="0.2" height="15.0" fill="rgb(217,58,13)" rx="2" ry="2" />
<text  x="1192.85" y="271.5" ></text>
</g>
<g >
<title>rmqueue (64,222 samples, 0.01%)</title><rect x="72.7" y="85" width="0.1" height="15.0" fill="rgb(226,98,23)" rx="2" ry="2" />
<text  x="75.69" y="95.5" ></text>
</g>
<g >
<title>munmap (69,734 samples, 0.01%)</title><rect x="12.8" y="245" width="0.2" height="15.0" fill="rgb(238,155,37)" rx="2" ry="2" />
<text  x="15.85" y="255.5" ></text>
</g>
<g >
<title>sched_clock_cpu (162,758 samples, 0.02%)</title><rect x="1189.2" y="85" width="0.3" height="15.0" fill="rgb(229,113,27)" rx="2" ry="2" />
<text  x="1192.25" y="95.5" ></text>
</g>
<g >
<title>cgroup_rstat_updated (63,723 samples, 0.01%)</title><rect x="71.6" y="85" width="0.1" height="15.0" fill="rgb(244,180,43)" rx="2" ry="2" />
<text  x="74.62" y="95.5" ></text>
</g>
<g >
<title>_dl_close_worker.part.0.isra.0 (97,674 samples, 0.01%)</title><rect x="12.4" y="229" width="0.1" height="15.0" fill="rgb(248,198,47)" rx="2" ry="2" />
<text  x="15.38" y="239.5" ></text>
</g>
<g >
<title>handle_pte_fault (76,983 samples, 0.01%)</title><rect x="14.4" y="149" width="0.2" height="15.0" fill="rgb(217,57,13)" rx="2" ry="2" />
<text  x="17.44" y="159.5" ></text>
</g>
<g >
<title>[libmpich.so.12.2.0] (151,222 samples, 0.02%)</title><rect x="10.3" y="245" width="0.2" height="15.0" fill="rgb(227,103,24)" rx="2" ry="2" />
<text  x="13.26" y="255.5" ></text>
</g>
<g >
<title>scheduler_tick (162,758 samples, 0.02%)</title><rect x="1189.2" y="117" width="0.3" height="15.0" fill="rgb(246,190,45)" rx="2" ry="2" />
<text  x="1192.25" y="127.5" ></text>
</g>
<g >
<title>do_group_exit (81,078 samples, 0.01%)</title><rect x="15.6" y="213" width="0.1" height="15.0" fill="rgb(219,67,16)" rx="2" ry="2" />
<text  x="18.61" y="223.5" ></text>
</g>
<g >
<title>exit_to_user_mode_loop (69,734 samples, 0.01%)</title><rect x="12.8" y="165" width="0.2" height="15.0" fill="rgb(224,90,21)" rx="2" ry="2" />
<text  x="15.85" y="175.5" ></text>
</g>
<g >
<title>schedule (173,688 samples, 0.02%)</title><rect x="15.0" y="149" width="0.3" height="15.0" fill="rgb(254,229,54)" rx="2" ry="2" />
<text  x="18.04" y="159.5" ></text>
</g>
<g >
<title>do_fault (76,983 samples, 0.01%)</title><rect x="14.4" y="133" width="0.2" height="15.0" fill="rgb(248,200,47)" rx="2" ry="2" />
<text  x="17.44" y="143.5" ></text>
</g>
<g >
<title>__sysvec_apic_timer_interrupt (162,758 samples, 0.02%)</title><rect x="1189.2" y="213" width="0.3" height="15.0" fill="rgb(242,173,41)" rx="2" ry="2" />
<text  x="1192.25" y="223.5" ></text>
</g>
<g >
<title>clock_nanosleep@GLIBC_2.2.5 (395,690 samples, 0.05%)</title><rect x="14.8" y="261" width="0.7" height="15.0" fill="rgb(240,165,39)" rx="2" ry="2" />
<text  x="17.85" y="271.5" ></text>
</g>
<g >
<title>do_exit (81,078 samples, 0.01%)</title><rect x="15.6" y="197" width="0.1" height="15.0" fill="rgb(231,122,29)" rx="2" ry="2" />
<text  x="18.61" y="207.5" ></text>
</g>
</g>
</svg>
