<?xml version="1.0" standalone="no"?>
<!DOCTYPE svg PUBLIC "-//W3C//DTD SVG 1.1//EN" "http://www.w3.org/Graphics/SVG/1.1/DTD/svg11.dtd">
<svg version="1.1" width="1200" height="326" onload="init(evt)" viewBox="0 0 1200 326" xmlns="http://www.w3.org/2000/svg" xmlns:xlink="http://www.w3.org/1999/xlink">
<!-- Flame graph stack visualization. See https://github.com/brendangregg/FlameGraph for latest version, and http://www.brendangregg.com/flamegraphs.html for examples. -->
<!-- NOTES:  -->
<defs>
	<linearGradient id="background" y1="0" y2="1" x1="0" x2="0" >
		<stop stop-color="#eeeeee" offset="5%" />
		<stop stop-color="#eeeeb0" offset="95%" />
	</linearGradient>
</defs>
<style type="text/css">
	text { font-family:Verdana; font-size:12px; fill:rgb(0,0,0); }
	#search, #ignorecase { opacity:0.1; cursor:pointer; }
	#search:hover, #search.show, #ignorecase:hover, #ignorecase.show { opacity:1; }
	#subtitle { text-anchor:middle; font-color:rgb(160,160,160); }
	#title { text-anchor:middle; font-size:17px}
	#unzoom { cursor:pointer; }
	#frames > *:hover { stroke:black; stroke-width:0.5; cursor:pointer; }
	.hide { display:none; }
	.parent { opacity:0.5; }
</style>
<script type="text/ecmascript">
<![CDATA[
	"use strict";
	var details, searchbtn, unzoombtn, matchedtxt, svg, searching, currentSearchTerm, ignorecase, ignorecaseBtn;
	function init(evt) {
		details = document.getElementById("details").firstChild;
		searchbtn = document.getElementById("search");
		ignorecaseBtn = document.getElementById("ignorecase");
		unzoombtn = document.getElementById("unzoom");
		matchedtxt = document.getElementById("matched");
		svg = document.getElementsByTagName("svg")[0];
		searching = 0;
		currentSearchTerm = null;

		// use GET parameters to restore a flamegraphs state.
		var params = get_params();
		if (params.x && params.y)
			zoom(find_group(document.querySelector('[x="' + params.x + '"][y="' + params.y + '"]')));
                if (params.s) search(params.s);
	}

	// event listeners
	window.addEventListener("click", function(e) {
		var target = find_group(e.target);
		if (target) {
			if (target.nodeName == "a") {
				if (e.ctrlKey === false) return;
				e.preventDefault();
			}
			if (target.classList.contains("parent")) unzoom(true);
			zoom(target);
			if (!document.querySelector('.parent')) {
				// we have basically done a clearzoom so clear the url
				var params = get_params();
				if (params.x) delete params.x;
				if (params.y) delete params.y;
				history.replaceState(null, null, parse_params(params));
				unzoombtn.classList.add("hide");
				return;
			}

			// set parameters for zoom state
			var el = target.querySelector("rect");
			if (el && el.attributes && el.attributes.y && el.attributes._orig_x) {
				var params = get_params()
				params.x = el.attributes._orig_x.value;
				params.y = el.attributes.y.value;
				history.replaceState(null, null, parse_params(params));
			}
		}
		else if (e.target.id == "unzoom") clearzoom();
		else if (e.target.id == "search") search_prompt();
		else if (e.target.id == "ignorecase") toggle_ignorecase();
	}, false)

	// mouse-over for info
	// show
	window.addEventListener("mouseover", function(e) {
		var target = find_group(e.target);
		if (target) details.nodeValue = "Function: " + g_to_text(target);
	}, false)

	// clear
	window.addEventListener("mouseout", function(e) {
		var target = find_group(e.target);
		if (target) details.nodeValue = ' ';
	}, false)

	// ctrl-F for search
	// ctrl-I to toggle case-sensitive search
	window.addEventListener("keydown",function (e) {
		if (e.keyCode === 114 || (e.ctrlKey && e.keyCode === 70)) {
			e.preventDefault();
			search_prompt();
		}
		else if (e.ctrlKey && e.keyCode === 73) {
			e.preventDefault();
			toggle_ignorecase();
		}
	}, false)

	// functions
	function get_params() {
		var params = {};
		var paramsarr = window.location.search.substr(1).split('&');
		for (var i = 0; i < paramsarr.length; ++i) {
			var tmp = paramsarr[i].split("=");
			if (!tmp[0] || !tmp[1]) continue;
			params[tmp[0]]  = decodeURIComponent(tmp[1]);
		}
		return params;
	}
	function parse_params(params) {
		var uri = "?";
		for (var key in params) {
			uri += key + '=' + encodeURIComponent(params[key]) + '&';
		}
		if (uri.slice(-1) == "&")
			uri = uri.substring(0, uri.length - 1);
		if (uri == '?')
			uri = window.location.href.split('?')[0];
		return uri;
	}
	function find_child(node, selector) {
		var children = node.querySelectorAll(selector);
		if (children.length) return children[0];
	}
	function find_group(node) {
		var parent = node.parentElement;
		if (!parent) return;
		if (parent.id == "frames") return node;
		return find_group(parent);
	}
	function orig_save(e, attr, val) {
		if (e.attributes["_orig_" + attr] != undefined) return;
		if (e.attributes[attr] == undefined) return;
		if (val == undefined) val = e.attributes[attr].value;
		e.setAttribute("_orig_" + attr, val);
	}
	function orig_load(e, attr) {
		if (e.attributes["_orig_"+attr] == undefined) return;
		e.attributes[attr].value = e.attributes["_orig_" + attr].value;
		e.removeAttribute("_orig_"+attr);
	}
	function g_to_text(e) {
		var text = find_child(e, "title").firstChild.nodeValue;
		return (text)
	}
	function g_to_func(e) {
		var func = g_to_text(e);
		// if there's any manipulation we want to do to the function
		// name before it's searched, do it here before returning.
		return (func);
	}
	function update_text(e) {
		var r = find_child(e, "rect");
		var t = find_child(e, "text");
		var w = parseFloat(r.attributes.width.value) -3;
		var txt = find_child(e, "title").textContent.replace(/\([^(]*\)$/,"");
		t.attributes.x.value = parseFloat(r.attributes.x.value) + 3;

		// Smaller than this size won't fit anything
		if (w < 2 * 12 * 0.59) {
			t.textContent = "";
			return;
		}

		t.textContent = txt;
		var sl = t.getSubStringLength(0, txt.length);
		// check if only whitespace or if we can fit the entire string into width w
		if (/^ *$/.test(txt) || sl < w)
			return;

		// this isn't perfect, but gives a good starting point
		// and avoids calling getSubStringLength too often
		var start = Math.floor((w/sl) * txt.length);
		for (var x = start; x > 0; x = x-2) {
			if (t.getSubStringLength(0, x + 2) <= w) {
				t.textContent = txt.substring(0, x) + "..";
				return;
			}
		}
		t.textContent = "";
	}

	// zoom
	function zoom_reset(e) {
		if (e.attributes != undefined) {
			orig_load(e, "x");
			orig_load(e, "width");
		}
		if (e.childNodes == undefined) return;
		for (var i = 0, c = e.childNodes; i < c.length; i++) {
			zoom_reset(c[i]);
		}
	}
	function zoom_child(e, x, ratio) {
		if (e.attributes != undefined) {
			if (e.attributes.x != undefined) {
				orig_save(e, "x");
				e.attributes.x.value = (parseFloat(e.attributes.x.value) - x - 10) * ratio + 10;
				if (e.tagName == "text")
					e.attributes.x.value = find_child(e.parentNode, "rect[x]").attributes.x.value + 3;
			}
			if (e.attributes.width != undefined) {
				orig_save(e, "width");
				e.attributes.width.value = parseFloat(e.attributes.width.value) * ratio;
			}
		}

		if (e.childNodes == undefined) return;
		for (var i = 0, c = e.childNodes; i < c.length; i++) {
			zoom_child(c[i], x - 10, ratio);
		}
	}
	function zoom_parent(e) {
		if (e.attributes) {
			if (e.attributes.x != undefined) {
				orig_save(e, "x");
				e.attributes.x.value = 10;
			}
			if (e.attributes.width != undefined) {
				orig_save(e, "width");
				e.attributes.width.value = parseInt(svg.width.baseVal.value) - (10 * 2);
			}
		}
		if (e.childNodes == undefined) return;
		for (var i = 0, c = e.childNodes; i < c.length; i++) {
			zoom_parent(c[i]);
		}
	}
	function zoom(node) {
		var attr = find_child(node, "rect").attributes;
		var width = parseFloat(attr.width.value);
		var xmin = parseFloat(attr.x.value);
		var xmax = parseFloat(xmin + width);
		var ymin = parseFloat(attr.y.value);
		var ratio = (svg.width.baseVal.value - 2 * 10) / width;

		// XXX: Workaround for JavaScript float issues (fix me)
		var fudge = 0.0001;

		unzoombtn.classList.remove("hide");

		var el = document.getElementById("frames").children;
		for (var i = 0; i < el.length; i++) {
			var e = el[i];
			var a = find_child(e, "rect").attributes;
			var ex = parseFloat(a.x.value);
			var ew = parseFloat(a.width.value);
			var upstack;
			// Is it an ancestor
			if (0 == 0) {
				upstack = parseFloat(a.y.value) > ymin;
			} else {
				upstack = parseFloat(a.y.value) < ymin;
			}
			if (upstack) {
				// Direct ancestor
				if (ex <= xmin && (ex+ew+fudge) >= xmax) {
					e.classList.add("parent");
					zoom_parent(e);
					update_text(e);
				}
				// not in current path
				else
					e.classList.add("hide");
			}
			// Children maybe
			else {
				// no common path
				if (ex < xmin || ex + fudge >= xmax) {
					e.classList.add("hide");
				}
				else {
					zoom_child(e, xmin, ratio);
					update_text(e);
				}
			}
		}
		search();
	}
	function unzoom(dont_update_text) {
		unzoombtn.classList.add("hide");
		var el = document.getElementById("frames").children;
		for(var i = 0; i < el.length; i++) {
			el[i].classList.remove("parent");
			el[i].classList.remove("hide");
			zoom_reset(el[i]);
			if(!dont_update_text) update_text(el[i]);
		}
		search();
	}
	function clearzoom() {
		unzoom();

		// remove zoom state
		var params = get_params();
		if (params.x) delete params.x;
		if (params.y) delete params.y;
		history.replaceState(null, null, parse_params(params));
	}

	// search
	function toggle_ignorecase() {
		ignorecase = !ignorecase;
		if (ignorecase) {
			ignorecaseBtn.classList.add("show");
		} else {
			ignorecaseBtn.classList.remove("show");
		}
		reset_search();
		search();
	}
	function reset_search() {
		var el = document.querySelectorAll("#frames rect");
		for (var i = 0; i < el.length; i++) {
			orig_load(el[i], "fill")
		}
		var params = get_params();
		delete params.s;
		history.replaceState(null, null, parse_params(params));
	}
	function search_prompt() {
		if (!searching) {
			var term = prompt("Enter a search term (regexp " +
			    "allowed, eg: ^ext4_)"
			    + (ignorecase ? ", ignoring case" : "")
			    + "\nPress Ctrl-i to toggle case sensitivity", "");
			if (term != null) search(term);
		} else {
			reset_search();
			searching = 0;
			currentSearchTerm = null;
			searchbtn.classList.remove("show");
			searchbtn.firstChild.nodeValue = "Search"
			matchedtxt.classList.add("hide");
			matchedtxt.firstChild.nodeValue = ""
		}
	}
	function search(term) {
		if (term) currentSearchTerm = term;

		var re = new RegExp(currentSearchTerm, ignorecase ? 'i' : '');
		var el = document.getElementById("frames").children;
		var matches = new Object();
		var maxwidth = 0;
		for (var i = 0; i < el.length; i++) {
			var e = el[i];
			var func = g_to_func(e);
			var rect = find_child(e, "rect");
			if (func == null || rect == null)
				continue;

			// Save max width. Only works as we have a root frame
			var w = parseFloat(rect.attributes.width.value);
			if (w > maxwidth)
				maxwidth = w;

			if (func.match(re)) {
				// highlight
				var x = parseFloat(rect.attributes.x.value);
				orig_save(rect, "fill");
				rect.attributes.fill.value = "rgb(230,0,230)";

				// remember matches
				if (matches[x] == undefined) {
					matches[x] = w;
				} else {
					if (w > matches[x]) {
						// overwrite with parent
						matches[x] = w;
					}
				}
				searching = 1;
			}
		}
		if (!searching)
			return;
		var params = get_params();
		params.s = currentSearchTerm;
		history.replaceState(null, null, parse_params(params));

		searchbtn.classList.add("show");
		searchbtn.firstChild.nodeValue = "Reset Search";

		// calculate percent matched, excluding vertical overlap
		var count = 0;
		var lastx = -1;
		var lastw = 0;
		var keys = Array();
		for (k in matches) {
			if (matches.hasOwnProperty(k))
				keys.push(k);
		}
		// sort the matched frames by their x location
		// ascending, then width descending
		keys.sort(function(a, b){
			return a - b;
		});
		// Step through frames saving only the biggest bottom-up frames
		// thanks to the sort order. This relies on the tree property
		// where children are always smaller than their parents.
		var fudge = 0.0001;	// JavaScript floating point
		for (var k in keys) {
			var x = parseFloat(keys[k]);
			var w = matches[keys[k]];
			if (x >= lastx + lastw - fudge) {
				count += w;
				lastx = x;
				lastw = w;
			}
		}
		// display matched percent
		matchedtxt.classList.remove("hide");
		var pct = 100 * count / maxwidth;
		if (pct != 100) pct = pct.toFixed(1)
		matchedtxt.firstChild.nodeValue = "Matched: " + pct + "%";
	}
]]>
</script>
<rect x="0.0" y="0" width="1200.0" height="326.0" fill="url(#background)"  />
<text id="title" x="600.00" y="24" >Flame Graph</text>
<text id="details" x="10.00" y="309" > </text>
<text id="unzoom" x="10.00" y="24" class="hide">Reset Zoom</text>
<text id="search" x="1090.00" y="24" >Search</text>
<text id="ignorecase" x="1174.00" y="24" >ic</text>
<text id="matched" x="1090.00" y="309" > </text>
<g id="frames">
<g >
<title>unmap_page_range (302,614 samples, 0.02%)</title><rect x="23.1" y="85" width="0.1" height="15.0" fill="rgb(206,5,1)" rx="2" ry="2" />
<text  x="26.06" y="95.5" ></text>
</g>
<g >
<title>vm_mmap_pgoff (396,050 samples, 0.02%)</title><rect x="12.1" y="149" width="0.2" height="15.0" fill="rgb(237,150,35)" rx="2" ry="2" />
<text  x="15.10" y="159.5" ></text>
</g>
<g >
<title>[libstencil.so] (3,676,842 samples, 0.19%)</title><rect x="20.2" y="245" width="2.2" height="15.0" fill="rgb(238,152,36)" rx="2" ry="2" />
<text  x="23.21" y="255.5" ></text>
</g>
<g >
<title>do_anonymous_page (1,554,149 samples, 0.08%)</title><rect x="124.7" y="133" width="0.9" height="15.0" fill="rgb(238,155,37)" rx="2" ry="2" />
<text  x="127.71" y="143.5" ></text>
</g>
<g >
<title>strcmp (313,439 samples, 0.02%)</title><rect x="1189.8" y="245" width="0.2" height="15.0" fill="rgb(217,58,13)" rx="2" ry="2" />
<text  x="1192.77" y="255.5" ></text>
</g>
<g >
<title>[unknown] (59,594,606 samples, 3.03%)</title><rect x="22.4" y="245" width="35.8" height="15.0" fill="rgb(210,24,5)" rx="2" ry="2" />
<text  x="25.43" y="255.5" >[un..</text>
</g>
<g >
<title>do_user_addr_fault (167,341 samples, 0.01%)</title><rect x="12.0" y="181" width="0.1" height="15.0" fill="rgb(228,108,25)" rx="2" ry="2" />
<text  x="14.98" y="191.5" ></text>
</g>
<g >
<title>dl_open_worker_begin (363,453 samples, 0.02%)</title><rect x="12.5" y="245" width="0.2" height="15.0" fill="rgb(233,129,31)" rx="2" ry="2" />
<text  x="15.51" y="255.5" ></text>
</g>
<g >
<title>sysvec_apic_timer_interrupt (217,220 samples, 0.01%)</title><rect x="56.7" y="197" width="0.1" height="15.0" fill="rgb(220,69,16)" rx="2" ry="2" />
<text  x="59.66" y="207.5" ></text>
</g>
<g >
<title>solve_jacobi_original (1,713,048,853 samples, 87.11%)</title><rect x="161.8" y="245" width="1028.0" height="15.0" fill="rgb(224,88,21)" rx="2" ry="2" />
<text  x="164.84" y="255.5" >solve_jacobi_original</text>
</g>
<g >
<title>setup_mesh_cell_values (2,155,353 samples, 0.11%)</title><rect x="56.9" y="229" width="1.3" height="15.0" fill="rgb(252,217,51)" rx="2" ry="2" />
<text  x="59.90" y="239.5" ></text>
</g>
<g >
<title>__x64_sys_mmap (396,050 samples, 0.02%)</title><rect x="12.1" y="181" width="0.2" height="15.0" fill="rgb(223,83,19)" rx="2" ry="2" />
<text  x="15.10" y="191.5" ></text>
</g>
<g >
<title>__sysvec_apic_timer_interrupt (217,220 samples, 0.01%)</title><rect x="56.7" y="181" width="0.1" height="15.0" fill="rgb(242,173,41)" rx="2" ry="2" />
<text  x="59.66" y="191.5" ></text>
</g>
<g >
<title>mmap64 (326,369 samples, 0.02%)</title><rect x="124.4" y="229" width="0.2" height="15.0" fill="rgb(220,70,16)" rx="2" ry="2" />
<text  x="127.41" y="239.5" ></text>
</g>
<g >
<title>entry_SYSCALL_64_after_hwframe (203,039 samples, 0.01%)</title><rect x="22.8" y="213" width="0.1" height="15.0" fill="rgb(218,63,15)" rx="2" ry="2" />
<text  x="25.76" y="223.5" ></text>
</g>
<g >
<title>__GI___libc_write (203,039 samples, 0.01%)</title><rect x="22.8" y="229" width="0.1" height="15.0" fill="rgb(217,57,13)" rx="2" ry="2" />
<text  x="25.76" y="239.5" ></text>
</g>
<g >
<title>__x64_sys_brk (573,267 samples, 0.03%)</title><rect x="22.9" y="181" width="0.4" height="15.0" fill="rgb(220,72,17)" rx="2" ry="2" />
<text  x="25.93" y="191.5" ></text>
</g>
<g >
<title>exc_page_fault (167,341 samples, 0.01%)</title><rect x="12.0" y="197" width="0.1" height="15.0" fill="rgb(212,35,8)" rx="2" ry="2" />
<text  x="14.98" y="207.5" ></text>
</g>
<g >
<title>asm_exc_nmi (401,793 samples, 0.02%)</title><rect x="1188.7" y="229" width="0.2" height="15.0" fill="rgb(252,217,52)" rx="2" ry="2" />
<text  x="1191.67" y="239.5" ></text>
</g>
<g >
<title>[libm.so.6] (11,857,476 samples, 0.60%)</title><rect x="13.1" y="245" width="7.1" height="15.0" fill="rgb(208,16,4)" rx="2" ry="2" />
<text  x="16.07" y="255.5" ></text>
</g>
<g >
<title>_dl_map_object_from_fd (263,962 samples, 0.01%)</title><rect x="124.2" y="229" width="0.1" height="15.0" fill="rgb(249,205,49)" rx="2" ry="2" />
<text  x="127.19" y="239.5" ></text>
</g>
<g >
<title>do_syscall_64 (396,050 samples, 0.02%)</title><rect x="12.1" y="197" width="0.2" height="15.0" fill="rgb(209,20,4)" rx="2" ry="2" />
<text  x="15.10" y="207.5" ></text>
</g>
<g >
<title>tick_sched_timer (912,998 samples, 0.05%)</title><rect x="1189.1" y="149" width="0.6" height="15.0" fill="rgb(254,227,54)" rx="2" ry="2" />
<text  x="1192.15" y="159.5" ></text>
</g>
<g >
<title>asm_exc_page_fault (167,341 samples, 0.01%)</title><rect x="12.0" y="213" width="0.1" height="15.0" fill="rgb(225,93,22)" rx="2" ry="2" />
<text  x="14.98" y="223.5" ></text>
</g>
<g >
<title>__remove_hrtimer (267,770 samples, 0.01%)</title><rect x="1188.9" y="149" width="0.2" height="15.0" fill="rgb(218,63,15)" rx="2" ry="2" />
<text  x="1191.91" y="159.5" ></text>
</g>
<g >
<title>zap_pte_range (302,614 samples, 0.02%)</title><rect x="23.1" y="53" width="0.1" height="15.0" fill="rgb(231,120,28)" rx="2" ry="2" />
<text  x="26.06" y="63.5" ></text>
</g>
<g >
<title>alloc_pages_vma (908,943 samples, 0.05%)</title><rect x="125.1" y="117" width="0.5" height="15.0" fill="rgb(253,224,53)" rx="2" ry="2" />
<text  x="128.08" y="127.5" ></text>
</g>
<g >
<title>mmap_region (201,365 samples, 0.01%)</title><rect x="124.4" y="117" width="0.2" height="15.0" fill="rgb(231,121,28)" rx="2" ry="2" />
<text  x="127.44" y="127.5" ></text>
</g>
<g >
<title>get_page_from_freelist (889,742 samples, 0.05%)</title><rect x="125.1" y="85" width="0.5" height="15.0" fill="rgb(252,218,52)" rx="2" ry="2" />
<text  x="128.09" y="95.5" ></text>
</g>
<g >
<title>[unknown] (1,840,080 samples, 0.09%)</title><rect x="10.1" y="245" width="1.1" height="15.0" fill="rgb(210,24,5)" rx="2" ry="2" />
<text  x="13.12" y="255.5" ></text>
</g>
<g >
<title>ksys_write (203,039 samples, 0.01%)</title><rect x="22.8" y="165" width="0.1" height="15.0" fill="rgb(205,4,1)" rx="2" ry="2" />
<text  x="25.76" y="175.5" ></text>
</g>
<g >
<title>mem_cgroup_charge_statistics.constprop.0 (268,519 samples, 0.01%)</title><rect x="124.7" y="85" width="0.2" height="15.0" fill="rgb(218,60,14)" rx="2" ry="2" />
<text  x="127.73" y="95.5" ></text>
</g>
<g >
<title>_int_malloc (1,775,454 samples, 0.09%)</title><rect x="124.6" y="245" width="1.1" height="15.0" fill="rgb(215,47,11)" rx="2" ry="2" />
<text  x="127.60" y="255.5" ></text>
</g>
<g >
<title>do_user_addr_fault (486,604 samples, 0.02%)</title><rect x="11.4" y="197" width="0.3" height="15.0" fill="rgb(228,108,25)" rx="2" ry="2" />
<text  x="14.41" y="207.5" ></text>
</g>
<g >
<title>__hrtimer_run_queues (217,220 samples, 0.01%)</title><rect x="56.7" y="149" width="0.1" height="15.0" fill="rgb(237,150,35)" rx="2" ry="2" />
<text  x="59.66" y="159.5" ></text>
</g>
<g >
<title>_int_malloc (167,398 samples, 0.01%)</title><rect x="12.4" y="245" width="0.1" height="15.0" fill="rgb(215,47,11)" rx="2" ry="2" />
<text  x="15.38" y="255.5" ></text>
</g>
<g >
<title>clock_nanosleep@GLIBC_2.2.5 (395,710 samples, 0.02%)</title><rect x="125.7" y="245" width="0.2" height="15.0" fill="rgb(240,165,39)" rx="2" ry="2" />
<text  x="128.70" y="255.5" ></text>
</g>
<g >
<title>_dl_map_object (887,892 samples, 0.05%)</title><rect x="11.8" y="245" width="0.6" height="15.0" fill="rgb(248,199,47)" rx="2" ry="2" />
<text  x="14.83" y="255.5" ></text>
</g>
<g >
<title>handle_mm_fault (469,125 samples, 0.02%)</title><rect x="11.4" y="181" width="0.3" height="15.0" fill="rgb(234,135,32)" rx="2" ry="2" />
<text  x="14.42" y="191.5" ></text>
</g>
<g >
<title>tlb_flush_mmu (173,490 samples, 0.01%)</title><rect x="23.1" y="37" width="0.1" height="15.0" fill="rgb(214,45,10)" rx="2" ry="2" />
<text  x="26.13" y="47.5" ></text>
</g>
<g >
<title>tick_do_update_jiffies64 (217,220 samples, 0.01%)</title><rect x="56.7" y="101" width="0.1" height="15.0" fill="rgb(208,14,3)" rx="2" ry="2" />
<text  x="59.66" y="111.5" ></text>
</g>
<g >
<title>all (1,966,481,820 samples, 100%)</title><rect x="10.0" y="277" width="1180.0" height="15.0" fill="rgb(213,39,9)" rx="2" ry="2" />
<text  x="13.00" y="287.5" ></text>
</g>
<g >
<title>init_meshes (1,752,696 samples, 0.09%)</title><rect x="160.2" y="245" width="1.0" height="15.0" fill="rgb(216,53,12)" rx="2" ry="2" />
<text  x="163.19" y="255.5" ></text>
</g>
<g >
<title>entry_SYSCALL_64_after_hwframe (326,369 samples, 0.02%)</title><rect x="124.4" y="213" width="0.2" height="15.0" fill="rgb(218,63,15)" rx="2" ry="2" />
<text  x="127.41" y="223.5" ></text>
</g>
<g >
<title>vm_mmap_pgoff (300,632 samples, 0.02%)</title><rect x="124.4" y="149" width="0.2" height="15.0" fill="rgb(237,150,35)" rx="2" ry="2" />
<text  x="127.41" y="159.5" ></text>
</g>
<g >
<title>__handle_mm_fault (453,311 samples, 0.02%)</title><rect x="11.4" y="165" width="0.3" height="15.0" fill="rgb(207,9,2)" rx="2" ry="2" />
<text  x="14.43" y="175.5" ></text>
</g>
<g >
<title>get_mem_cgroup_from_mm (181,230 samples, 0.01%)</title><rect x="124.9" y="101" width="0.2" height="15.0" fill="rgb(218,61,14)" rx="2" ry="2" />
<text  x="127.94" y="111.5" ></text>
</g>
<g >
<title>tick_sched_handle (779,859 samples, 0.04%)</title><rect x="1189.2" y="133" width="0.5" height="15.0" fill="rgb(219,68,16)" rx="2" ry="2" />
<text  x="1192.23" y="143.5" ></text>
</g>
<g >
<title>mesh_copy_core (54,617,281 samples, 2.78%)</title><rect x="24.0" y="229" width="32.8" height="15.0" fill="rgb(207,12,2)" rx="2" ry="2" />
<text  x="27.02" y="239.5" >me..</text>
</g>
<g >
<title>__do_munmap (508,167 samples, 0.03%)</title><rect x="22.9" y="149" width="0.3" height="15.0" fill="rgb(234,136,32)" rx="2" ry="2" />
<text  x="25.93" y="159.5" ></text>
</g>
<g >
<title>do_lookup_x (393,137 samples, 0.02%)</title><rect x="126.1" y="245" width="0.3" height="15.0" fill="rgb(245,187,44)" rx="2" ry="2" />
<text  x="129.13" y="255.5" ></text>
</g>
<g >
<title>ksys_mmap_pgoff (300,632 samples, 0.02%)</title><rect x="124.4" y="165" width="0.2" height="15.0" fill="rgb(245,185,44)" rx="2" ry="2" />
<text  x="127.41" y="175.5" ></text>
</g>
<g >
<title>exc_page_fault (486,604 samples, 0.02%)</title><rect x="11.4" y="213" width="0.3" height="15.0" fill="rgb(212,35,8)" rx="2" ry="2" />
<text  x="14.41" y="223.5" ></text>
</g>
<g >
<title>do_mmap (354,500 samples, 0.02%)</title><rect x="12.1" y="133" width="0.2" height="15.0" fill="rgb(228,107,25)" rx="2" ry="2" />
<text  x="15.10" y="143.5" ></text>
</g>
<g >
<title>__memset_avx2_unaligned_erms (183,130 samples, 0.01%)</title><rect x="10.6" y="229" width="0.1" height="15.0" fill="rgb(223,84,20)" rx="2" ry="2" />
<text  x="13.56" y="239.5" ></text>
</g>
<g >
<title>zap_pmd_range.isra.0 (302,614 samples, 0.02%)</title><rect x="23.1" y="69" width="0.1" height="15.0" fill="rgb(244,180,43)" rx="2" ry="2" />
<text  x="26.06" y="79.5" ></text>
</g>
<g >
<title>__mem_cgroup_charge (614,524 samples, 0.03%)</title><rect x="124.7" y="117" width="0.4" height="15.0" fill="rgb(218,60,14)" rx="2" ry="2" />
<text  x="127.71" y="127.5" ></text>
</g>
<g >
<title>__ieee754_exp_fma (108,419,287 samples, 5.51%)</title><rect x="58.6" y="245" width="65.1" height="15.0" fill="rgb(248,201,48)" rx="2" ry="2" />
<text  x="61.61" y="255.5" >__ieee7..</text>
</g>
<g >
<title>do_syscall_64 (326,369 samples, 0.02%)</title><rect x="124.4" y="197" width="0.2" height="15.0" fill="rgb(209,20,4)" rx="2" ry="2" />
<text  x="127.41" y="207.5" ></text>
</g>
<g >
<title>task_tick_fair (393,159 samples, 0.02%)</title><rect x="1189.5" y="85" width="0.2" height="15.0" fill="rgb(217,57,13)" rx="2" ry="2" />
<text  x="1192.46" y="95.5" ></text>
</g>
<g >
<title>do_syscall_64 (573,267 samples, 0.03%)</title><rect x="22.9" y="197" width="0.4" height="15.0" fill="rgb(209,20,4)" rx="2" ry="2" />
<text  x="25.93" y="207.5" ></text>
</g>
<g >
<title>ksys_mmap_pgoff (396,050 samples, 0.02%)</title><rect x="12.1" y="165" width="0.2" height="15.0" fill="rgb(245,185,44)" rx="2" ry="2" />
<text  x="15.10" y="175.5" ></text>
</g>
<g >
<title>__sin_fma (214,098 samples, 0.01%)</title><rect x="123.9" y="245" width="0.1" height="15.0" fill="rgb(251,211,50)" rx="2" ry="2" />
<text  x="126.87" y="255.5" ></text>
</g>
<g >
<title>asm_sysvec_apic_timer_interrupt (217,220 samples, 0.01%)</title><rect x="56.7" y="213" width="0.1" height="15.0" fill="rgb(232,127,30)" rx="2" ry="2" />
<text  x="59.66" y="223.5" ></text>
</g>
<g >
<title>page_cache_async_ra (281,135 samples, 0.01%)</title><rect x="11.4" y="85" width="0.2" height="15.0" fill="rgb(210,24,5)" rx="2" ry="2" />
<text  x="14.44" y="95.5" ></text>
</g>
<g >
<title>update_wall_time (217,220 samples, 0.01%)</title><rect x="56.7" y="85" width="0.1" height="15.0" fill="rgb(207,11,2)" rx="2" ry="2" />
<text  x="59.66" y="95.5" ></text>
</g>
<g >
<title>free_pages_and_swap_cache (205,553 samples, 0.01%)</title><rect x="22.9" y="101" width="0.2" height="15.0" fill="rgb(222,82,19)" rx="2" ry="2" />
<text  x="25.93" y="111.5" ></text>
</g>
<g >
<title>entry_SYSCALL_64_after_hwframe (573,267 samples, 0.03%)</title><rect x="22.9" y="213" width="0.4" height="15.0" fill="rgb(218,63,15)" rx="2" ry="2" />
<text  x="25.93" y="223.5" ></text>
</g>
<g >
<title>timekeeping_advance (217,220 samples, 0.01%)</title><rect x="56.7" y="69" width="0.1" height="15.0" fill="rgb(227,104,25)" rx="2" ry="2" />
<text  x="59.66" y="79.5" ></text>
</g>
<g >
<title>__memset_avx2_unaligned_erms (540,896 samples, 0.03%)</title><rect x="11.4" y="245" width="0.3" height="15.0" fill="rgb(223,84,20)" rx="2" ry="2" />
<text  x="14.38" y="255.5" ></text>
</g>
<g >
<title>exc_nmi (401,793 samples, 0.02%)</title><rect x="1188.7" y="213" width="0.2" height="15.0" fill="rgb(239,159,38)" rx="2" ry="2" />
<text  x="1191.67" y="223.5" ></text>
</g>
<g >
<title>clear_page_erms (735,846 samples, 0.04%)</title><rect x="125.1" y="69" width="0.4" height="15.0" fill="rgb(229,113,27)" rx="2" ry="2" />
<text  x="128.10" y="79.5" ></text>
</g>
<g >
<title>_dl_map_object_from_fd (204,482 samples, 0.01%)</title><rect x="12.0" y="229" width="0.1" height="15.0" fill="rgb(249,205,49)" rx="2" ry="2" />
<text  x="14.96" y="239.5" ></text>
</g>
<g >
<title>orted (4,954,657 samples, 0.25%)</title><rect x="10.0" y="261" width="3.0" height="15.0" fill="rgb(212,33,8)" rx="2" ry="2" />
<text  x="13.00" y="271.5" ></text>
</g>
<g >
<title>__alloc_pages (908,943 samples, 0.05%)</title><rect x="125.1" y="101" width="0.5" height="15.0" fill="rgb(233,129,30)" rx="2" ry="2" />
<text  x="128.08" y="111.5" ></text>
</g>
<g >
<title>mmap64 (396,050 samples, 0.02%)</title><rect x="12.1" y="229" width="0.2" height="15.0" fill="rgb(220,70,16)" rx="2" ry="2" />
<text  x="15.10" y="239.5" ></text>
</g>
<g >
<title>cgroup_rstat_updated (241,018 samples, 0.01%)</title><rect x="124.8" y="69" width="0.1" height="15.0" fill="rgb(244,180,43)" rx="2" ry="2" />
<text  x="127.75" y="79.5" ></text>
</g>
<g >
<title>sysvec_apic_timer_interrupt (1,429,965 samples, 0.07%)</title><rect x="1188.9" y="213" width="0.9" height="15.0" fill="rgb(220,69,16)" rx="2" ry="2" />
<text  x="1191.91" y="223.5" ></text>
</g>
<g >
<title>charge_memcg (384,099 samples, 0.02%)</title><rect x="124.7" y="101" width="0.2" height="15.0" fill="rgb(242,170,40)" rx="2" ry="2" />
<text  x="127.71" y="111.5" ></text>
</g>
<g >
<title>_int_free (272,911 samples, 0.01%)</title><rect x="23.7" y="229" width="0.1" height="15.0" fill="rgb(247,196,46)" rx="2" ry="2" />
<text  x="26.66" y="239.5" ></text>
</g>
<g >
<title>do_fault (453,311 samples, 0.02%)</title><rect x="11.4" y="133" width="0.3" height="15.0" fill="rgb(248,200,47)" rx="2" ry="2" />
<text  x="14.43" y="143.5" ></text>
</g>
<g >
<title>__x64_sys_write (203,039 samples, 0.01%)</title><rect x="22.8" y="181" width="0.1" height="15.0" fill="rgb(246,189,45)" rx="2" ry="2" />
<text  x="25.76" y="191.5" ></text>
</g>
<g >
<title>_dl_close (167,586 samples, 0.01%)</title><rect x="23.4" y="229" width="0.2" height="15.0" fill="rgb(242,174,41)" rx="2" ry="2" />
<text  x="26.45" y="239.5" ></text>
</g>
<g >
<title>hrtimer_interrupt (217,220 samples, 0.01%)</title><rect x="56.7" y="165" width="0.1" height="15.0" fill="rgb(228,109,26)" rx="2" ry="2" />
<text  x="59.66" y="175.5" ></text>
</g>
<g >
<title>entry_SYSCALL_64_after_hwframe (312,101 samples, 0.02%)</title><rect x="125.7" y="229" width="0.2" height="15.0" fill="rgb(218,63,15)" rx="2" ry="2" />
<text  x="128.73" y="239.5" ></text>
</g>
<g >
<title>asm_exc_page_fault (520,457 samples, 0.03%)</title><rect x="11.4" y="229" width="0.3" height="15.0" fill="rgb(225,93,22)" rx="2" ry="2" />
<text  x="14.39" y="239.5" ></text>
</g>
<g >
<title>timekeeping_update (217,220 samples, 0.01%)</title><rect x="56.7" y="53" width="0.1" height="15.0" fill="rgb(238,152,36)" rx="2" ry="2" />
<text  x="59.66" y="63.5" ></text>
</g>
<g >
<title>do_lookup_x (191,146 samples, 0.01%)</title><rect x="12.7" y="245" width="0.1" height="15.0" fill="rgb(245,187,44)" rx="2" ry="2" />
<text  x="15.73" y="255.5" ></text>
</g>
<g >
<title>__sysvec_apic_timer_interrupt (1,310,641 samples, 0.07%)</title><rect x="1188.9" y="197" width="0.8" height="15.0" fill="rgb(242,173,41)" rx="2" ry="2" />
<text  x="1191.91" y="207.5" ></text>
</g>
<g >
<title>top-stencil (1,961,526,558 samples, 99.75%)</title><rect x="13.0" y="261" width="1177.0" height="15.0" fill="rgb(212,33,7)" rx="2" ry="2" />
<text  x="15.97" y="271.5" >top-stencil</text>
</g>
<g >
<title>filemap_fault (296,659 samples, 0.02%)</title><rect x="11.4" y="101" width="0.2" height="15.0" fill="rgb(219,68,16)" rx="2" ry="2" />
<text  x="14.43" y="111.5" ></text>
</g>
<g >
<title>__cos_fma (508,177 samples, 0.03%)</title><rect x="58.3" y="245" width="0.3" height="15.0" fill="rgb(233,130,31)" rx="2" ry="2" />
<text  x="61.30" y="255.5" ></text>
</g>
<g >
<title>exp@@GLIBC_2.29 (56,252,341 samples, 2.86%)</title><rect x="126.4" y="245" width="33.8" height="15.0" fill="rgb(230,115,27)" rx="2" ry="2" />
<text  x="129.41" y="255.5" >ex..</text>
</g>
<g >
<title>asm_exc_page_fault (1,610,101 samples, 0.08%)</title><rect x="124.7" y="229" width="1.0" height="15.0" fill="rgb(225,93,22)" rx="2" ry="2" />
<text  x="127.68" y="239.5" ></text>
</g>
<g >
<title>unmap_region (508,167 samples, 0.03%)</title><rect x="22.9" y="133" width="0.3" height="15.0" fill="rgb(219,64,15)" rx="2" ry="2" />
<text  x="25.93" y="143.5" ></text>
</g>
<g >
<title>entry_SYSCALL_64_after_hwframe (396,050 samples, 0.02%)</title><rect x="12.1" y="213" width="0.2" height="15.0" fill="rgb(218,63,15)" rx="2" ry="2" />
<text  x="15.10" y="223.5" ></text>
</g>
<g >
<title>mesh_set_cell_kind (682,466 samples, 0.03%)</title><rect x="161.3" y="245" width="0.4" height="15.0" fill="rgb(243,175,41)" rx="2" ry="2" />
<text  x="164.27" y="255.5" ></text>
</g>
<g >
<title>__do_sys_brk (573,267 samples, 0.03%)</title><rect x="22.9" y="165" width="0.4" height="15.0" fill="rgb(217,58,13)" rx="2" ry="2" />
<text  x="25.93" y="175.5" ></text>
</g>
<g >
<title>do_syscall_64 (312,101 samples, 0.02%)</title><rect x="125.7" y="213" width="0.2" height="15.0" fill="rgb(209,20,4)" rx="2" ry="2" />
<text  x="128.73" y="223.5" ></text>
</g>
<g >
<title>__do_fault (361,484 samples, 0.02%)</title><rect x="11.4" y="117" width="0.2" height="15.0" fill="rgb(221,74,17)" rx="2" ry="2" />
<text  x="14.43" y="127.5" ></text>
</g>
<g >
<title>__brk (573,267 samples, 0.03%)</title><rect x="22.9" y="229" width="0.4" height="15.0" fill="rgb(225,94,22)" rx="2" ry="2" />
<text  x="25.93" y="239.5" ></text>
</g>
<g >
<title>exc_page_fault (1,591,020 samples, 0.08%)</title><rect x="124.7" y="213" width="1.0" height="15.0" fill="rgb(212,35,8)" rx="2" ry="2" />
<text  x="127.70" y="223.5" ></text>
</g>
<g >
<title>handle_pte_fault (453,311 samples, 0.02%)</title><rect x="11.4" y="149" width="0.3" height="15.0" fill="rgb(217,57,13)" rx="2" ry="2" />
<text  x="14.43" y="159.5" ></text>
</g>
<g >
<title>__handle_mm_fault (1,563,091 samples, 0.08%)</title><rect x="124.7" y="165" width="0.9" height="15.0" fill="rgb(207,9,2)" rx="2" ry="2" />
<text  x="127.71" y="175.5" ></text>
</g>
<g >
<title>vfs_write (203,039 samples, 0.01%)</title><rect x="22.8" y="149" width="0.1" height="15.0" fill="rgb(250,209,50)" rx="2" ry="2" />
<text  x="25.76" y="159.5" ></text>
</g>
<g >
<title>scheduler_tick (523,118 samples, 0.03%)</title><rect x="1189.4" y="101" width="0.3" height="15.0" fill="rgb(246,190,45)" rx="2" ry="2" />
<text  x="1192.38" y="111.5" ></text>
</g>
<g >
<title>page_cache_ra_unbounded (281,135 samples, 0.01%)</title><rect x="11.4" y="53" width="0.2" height="15.0" fill="rgb(234,134,32)" rx="2" ry="2" />
<text  x="14.44" y="63.5" ></text>
</g>
<g >
<title>__hrtimer_run_queues (1,310,641 samples, 0.07%)</title><rect x="1188.9" y="165" width="0.8" height="15.0" fill="rgb(237,150,35)" rx="2" ry="2" />
<text  x="1191.91" y="175.5" ></text>
</g>
<g >
<title>unmap_vmas (302,614 samples, 0.02%)</title><rect x="23.1" y="117" width="0.1" height="15.0" fill="rgb(243,176,42)" rx="2" ry="2" />
<text  x="26.06" y="127.5" ></text>
</g>
<g >
<title>dl_open_worker_begin (284,511 samples, 0.01%)</title><rect x="126.0" y="245" width="0.1" height="15.0" fill="rgb(233,129,31)" rx="2" ry="2" />
<text  x="128.96" y="255.5" ></text>
</g>
<g >
<title>update_process_times (650,223 samples, 0.03%)</title><rect x="1189.3" y="117" width="0.4" height="15.0" fill="rgb(250,209,50)" rx="2" ry="2" />
<text  x="1192.31" y="127.5" ></text>
</g>
<g >
<title>handle_mm_fault (1,563,091 samples, 0.08%)</title><rect x="124.7" y="181" width="0.9" height="15.0" fill="rgb(234,135,32)" rx="2" ry="2" />
<text  x="127.71" y="191.5" ></text>
</g>
<g >
<title>handle_pte_fault (1,563,091 samples, 0.08%)</title><rect x="124.7" y="149" width="0.9" height="15.0" fill="rgb(217,57,13)" rx="2" ry="2" />
<text  x="127.71" y="159.5" ></text>
</g>
<g >
<title>do_mmap (300,632 samples, 0.02%)</title><rect x="124.4" y="133" width="0.2" height="15.0" fill="rgb(228,107,25)" rx="2" ry="2" />
<text  x="127.41" y="143.5" ></text>
</g>
<g >
<title>do_syscall_64 (203,039 samples, 0.01%)</title><rect x="22.8" y="197" width="0.1" height="15.0" fill="rgb(209,20,4)" rx="2" ry="2" />
<text  x="25.76" y="207.5" ></text>
</g>
<g >
<title>ondemand_readahead (281,135 samples, 0.01%)</title><rect x="11.4" y="69" width="0.2" height="15.0" fill="rgb(251,213,51)" rx="2" ry="2" />
<text  x="14.44" y="79.5" ></text>
</g>
<g >
<title>do_user_addr_fault (1,581,800 samples, 0.08%)</title><rect x="124.7" y="197" width="0.9" height="15.0" fill="rgb(228,108,25)" rx="2" ry="2" />
<text  x="127.70" y="207.5" ></text>
</g>
<g >
<title>unmap_single_vma (302,614 samples, 0.02%)</title><rect x="23.1" y="101" width="0.1" height="15.0" fill="rgb(225,93,22)" rx="2" ry="2" />
<text  x="26.06" y="111.5" ></text>
</g>
<g >
<title>_dl_map_object (961,598 samples, 0.05%)</title><rect x="124.0" y="245" width="0.6" height="15.0" fill="rgb(248,199,47)" rx="2" ry="2" />
<text  x="127.02" y="255.5" ></text>
</g>
<g >
<title>tick_sched_timer (217,220 samples, 0.01%)</title><rect x="56.7" y="133" width="0.1" height="15.0" fill="rgb(254,227,54)" rx="2" ry="2" />
<text  x="59.66" y="143.5" ></text>
</g>
<g >
<title>tick_sched_do_timer (217,220 samples, 0.01%)</title><rect x="56.7" y="117" width="0.1" height="15.0" fill="rgb(227,104,25)" rx="2" ry="2" />
<text  x="59.66" y="127.5" ></text>
</g>
<g >
<title>__x64_sys_mmap (300,632 samples, 0.02%)</title><rect x="124.4" y="181" width="0.2" height="15.0" fill="rgb(223,83,19)" rx="2" ry="2" />
<text  x="127.41" y="191.5" ></text>
</g>
<g >
<title>mmap_region (312,883 samples, 0.02%)</title><rect x="12.1" y="117" width="0.2" height="15.0" fill="rgb(231,121,28)" rx="2" ry="2" />
<text  x="15.10" y="127.5" ></text>
</g>
<g >
<title>_dl_relocate_object (207,657 samples, 0.01%)</title><rect x="12.5" y="229" width="0.2" height="15.0" fill="rgb(231,120,28)" rx="2" ry="2" />
<text  x="15.53" y="239.5" ></text>
</g>
<g >
<title>asm_sysvec_apic_timer_interrupt (1,429,965 samples, 0.07%)</title><rect x="1188.9" y="229" width="0.9" height="15.0" fill="rgb(232,127,30)" rx="2" ry="2" />
<text  x="1191.91" y="239.5" ></text>
</g>
<g >
<title>__irqentry_text_end (265,980 samples, 0.01%)</title><rect x="1188.5" y="229" width="0.2" height="15.0" fill="rgb(248,199,47)" rx="2" ry="2" />
<text  x="1191.51" y="239.5" ></text>
</g>
<g >
<title>tlb_finish_mmu (205,553 samples, 0.01%)</title><rect x="22.9" y="117" width="0.2" height="15.0" fill="rgb(251,212,50)" rx="2" ry="2" />
<text  x="25.93" y="127.5" ></text>
</g>
<g >
<title>hrtimer_interrupt (1,310,641 samples, 0.07%)</title><rect x="1188.9" y="181" width="0.8" height="15.0" fill="rgb(228,109,26)" rx="2" ry="2" />
<text  x="1191.91" y="191.5" ></text>
</g>
</g>
</svg>
