<?xml version="1.0" standalone="no"?>
<!DOCTYPE svg PUBLIC "-//W3C//DTD SVG 1.1//EN" "http://www.w3.org/Graphics/SVG/1.1/DTD/svg11.dtd">
<svg version="1.1" width="1200" height="326" onload="init(evt)" viewBox="0 0 1200 326" xmlns="http://www.w3.org/2000/svg" xmlns:xlink="http://www.w3.org/1999/xlink">
<!-- Flame graph stack visualization. See https://github.com/brendangregg/FlameGraph for latest version, and http://www.brendangregg.com/flamegraphs.html for examples. -->
<!-- NOTES:  -->
<defs>
	<linearGradient id="background" y1="0" y2="1" x1="0" x2="0" >
		<stop stop-color="#eeeeee" offset="5%" />
		<stop stop-color="#eeeeb0" offset="95%" />
	</linearGradient>
</defs>
<style type="text/css">
	text { font-family:Verdana; font-size:12px; fill:rgb(0,0,0); }
	#search, #ignorecase { opacity:0.1; cursor:pointer; }
	#search:hover, #search.show, #ignorecase:hover, #ignorecase.show { opacity:1; }
	#subtitle { text-anchor:middle; font-color:rgb(160,160,160); }
	#title { text-anchor:middle; font-size:17px}
	#unzoom { cursor:pointer; }
	#frames > *:hover { stroke:black; stroke-width:0.5; cursor:pointer; }
	.hide { display:none; }
	.parent { opacity:0.5; }
</style>
<script type="text/ecmascript">
<![CDATA[
	"use strict";
	var details, searchbtn, unzoombtn, matchedtxt, svg, searching, currentSearchTerm, ignorecase, ignorecaseBtn;
	function init(evt) {
		details = document.getElementById("details").firstChild;
		searchbtn = document.getElementById("search");
		ignorecaseBtn = document.getElementById("ignorecase");
		unzoombtn = document.getElementById("unzoom");
		matchedtxt = document.getElementById("matched");
		svg = document.getElementsByTagName("svg")[0];
		searching = 0;
		currentSearchTerm = null;

		// use GET parameters to restore a flamegraphs state.
		var params = get_params();
		if (params.x && params.y)
			zoom(find_group(document.querySelector('[x="' + params.x + '"][y="' + params.y + '"]')));
                if (params.s) search(params.s);
	}

	// event listeners
	window.addEventListener("click", function(e) {
		var target = find_group(e.target);
		if (target) {
			if (target.nodeName == "a") {
				if (e.ctrlKey === false) return;
				e.preventDefault();
			}
			if (target.classList.contains("parent")) unzoom(true);
			zoom(target);
			if (!document.querySelector('.parent')) {
				// we have basically done a clearzoom so clear the url
				var params = get_params();
				if (params.x) delete params.x;
				if (params.y) delete params.y;
				history.replaceState(null, null, parse_params(params));
				unzoombtn.classList.add("hide");
				return;
			}

			// set parameters for zoom state
			var el = target.querySelector("rect");
			if (el && el.attributes && el.attributes.y && el.attributes._orig_x) {
				var params = get_params()
				params.x = el.attributes._orig_x.value;
				params.y = el.attributes.y.value;
				history.replaceState(null, null, parse_params(params));
			}
		}
		else if (e.target.id == "unzoom") clearzoom();
		else if (e.target.id == "search") search_prompt();
		else if (e.target.id == "ignorecase") toggle_ignorecase();
	}, false)

	// mouse-over for info
	// show
	window.addEventListener("mouseover", function(e) {
		var target = find_group(e.target);
		if (target) details.nodeValue = "Function: " + g_to_text(target);
	}, false)

	// clear
	window.addEventListener("mouseout", function(e) {
		var target = find_group(e.target);
		if (target) details.nodeValue = ' ';
	}, false)

	// ctrl-F for search
	// ctrl-I to toggle case-sensitive search
	window.addEventListener("keydown",function (e) {
		if (e.keyCode === 114 || (e.ctrlKey && e.keyCode === 70)) {
			e.preventDefault();
			search_prompt();
		}
		else if (e.ctrlKey && e.keyCode === 73) {
			e.preventDefault();
			toggle_ignorecase();
		}
	}, false)

	// functions
	function get_params() {
		var params = {};
		var paramsarr = window.location.search.substr(1).split('&');
		for (var i = 0; i < paramsarr.length; ++i) {
			var tmp = paramsarr[i].split("=");
			if (!tmp[0] || !tmp[1]) continue;
			params[tmp[0]]  = decodeURIComponent(tmp[1]);
		}
		return params;
	}
	function parse_params(params) {
		var uri = "?";
		for (var key in params) {
			uri += key + '=' + encodeURIComponent(params[key]) + '&';
		}
		if (uri.slice(-1) == "&")
			uri = uri.substring(0, uri.length - 1);
		if (uri == '?')
			uri = window.location.href.split('?')[0];
		return uri;
	}
	function find_child(node, selector) {
		var children = node.querySelectorAll(selector);
		if (children.length) return children[0];
	}
	function find_group(node) {
		var parent = node.parentElement;
		if (!parent) return;
		if (parent.id == "frames") return node;
		return find_group(parent);
	}
	function orig_save(e, attr, val) {
		if (e.attributes["_orig_" + attr] != undefined) return;
		if (e.attributes[attr] == undefined) return;
		if (val == undefined) val = e.attributes[attr].value;
		e.setAttribute("_orig_" + attr, val);
	}
	function orig_load(e, attr) {
		if (e.attributes["_orig_"+attr] == undefined) return;
		e.attributes[attr].value = e.attributes["_orig_" + attr].value;
		e.removeAttribute("_orig_"+attr);
	}
	function g_to_text(e) {
		var text = find_child(e, "title").firstChild.nodeValue;
		return (text)
	}
	function g_to_func(e) {
		var func = g_to_text(e);
		// if there's any manipulation we want to do to the function
		// name before it's searched, do it here before returning.
		return (func);
	}
	function update_text(e) {
		var r = find_child(e, "rect");
		var t = find_child(e, "text");
		var w = parseFloat(r.attributes.width.value) -3;
		var txt = find_child(e, "title").textContent.replace(/\([^(]*\)$/,"");
		t.attributes.x.value = parseFloat(r.attributes.x.value) + 3;

		// Smaller than this size won't fit anything
		if (w < 2 * 12 * 0.59) {
			t.textContent = "";
			return;
		}

		t.textContent = txt;
		var sl = t.getSubStringLength(0, txt.length);
		// check if only whitespace or if we can fit the entire string into width w
		if (/^ *$/.test(txt) || sl < w)
			return;

		// this isn't perfect, but gives a good starting point
		// and avoids calling getSubStringLength too often
		var start = Math.floor((w/sl) * txt.length);
		for (var x = start; x > 0; x = x-2) {
			if (t.getSubStringLength(0, x + 2) <= w) {
				t.textContent = txt.substring(0, x) + "..";
				return;
			}
		}
		t.textContent = "";
	}

	// zoom
	function zoom_reset(e) {
		if (e.attributes != undefined) {
			orig_load(e, "x");
			orig_load(e, "width");
		}
		if (e.childNodes == undefined) return;
		for (var i = 0, c = e.childNodes; i < c.length; i++) {
			zoom_reset(c[i]);
		}
	}
	function zoom_child(e, x, ratio) {
		if (e.attributes != undefined) {
			if (e.attributes.x != undefined) {
				orig_save(e, "x");
				e.attributes.x.value = (parseFloat(e.attributes.x.value) - x - 10) * ratio + 10;
				if (e.tagName == "text")
					e.attributes.x.value = find_child(e.parentNode, "rect[x]").attributes.x.value + 3;
			}
			if (e.attributes.width != undefined) {
				orig_save(e, "width");
				e.attributes.width.value = parseFloat(e.attributes.width.value) * ratio;
			}
		}

		if (e.childNodes == undefined) return;
		for (var i = 0, c = e.childNodes; i < c.length; i++) {
			zoom_child(c[i], x - 10, ratio);
		}
	}
	function zoom_parent(e) {
		if (e.attributes) {
			if (e.attributes.x != undefined) {
				orig_save(e, "x");
				e.attributes.x.value = 10;
			}
			if (e.attributes.width != undefined) {
				orig_save(e, "width");
				e.attributes.width.value = parseInt(svg.width.baseVal.value) - (10 * 2);
			}
		}
		if (e.childNodes == undefined) return;
		for (var i = 0, c = e.childNodes; i < c.length; i++) {
			zoom_parent(c[i]);
		}
	}
	function zoom(node) {
		var attr = find_child(node, "rect").attributes;
		var width = parseFloat(attr.width.value);
		var xmin = parseFloat(attr.x.value);
		var xmax = parseFloat(xmin + width);
		var ymin = parseFloat(attr.y.value);
		var ratio = (svg.width.baseVal.value - 2 * 10) / width;

		// XXX: Workaround for JavaScript float issues (fix me)
		var fudge = 0.0001;

		unzoombtn.classList.remove("hide");

		var el = document.getElementById("frames").children;
		for (var i = 0; i < el.length; i++) {
			var e = el[i];
			var a = find_child(e, "rect").attributes;
			var ex = parseFloat(a.x.value);
			var ew = parseFloat(a.width.value);
			var upstack;
			// Is it an ancestor
			if (0 == 0) {
				upstack = parseFloat(a.y.value) > ymin;
			} else {
				upstack = parseFloat(a.y.value) < ymin;
			}
			if (upstack) {
				// Direct ancestor
				if (ex <= xmin && (ex+ew+fudge) >= xmax) {
					e.classList.add("parent");
					zoom_parent(e);
					update_text(e);
				}
				// not in current path
				else
					e.classList.add("hide");
			}
			// Children maybe
			else {
				// no common path
				if (ex < xmin || ex + fudge >= xmax) {
					e.classList.add("hide");
				}
				else {
					zoom_child(e, xmin, ratio);
					update_text(e);
				}
			}
		}
		search();
	}
	function unzoom(dont_update_text) {
		unzoombtn.classList.add("hide");
		var el = document.getElementById("frames").children;
		for(var i = 0; i < el.length; i++) {
			el[i].classList.remove("parent");
			el[i].classList.remove("hide");
			zoom_reset(el[i]);
			if(!dont_update_text) update_text(el[i]);
		}
		search();
	}
	function clearzoom() {
		unzoom();

		// remove zoom state
		var params = get_params();
		if (params.x) delete params.x;
		if (params.y) delete params.y;
		history.replaceState(null, null, parse_params(params));
	}

	// search
	function toggle_ignorecase() {
		ignorecase = !ignorecase;
		if (ignorecase) {
			ignorecaseBtn.classList.add("show");
		} else {
			ignorecaseBtn.classList.remove("show");
		}
		reset_search();
		search();
	}
	function reset_search() {
		var el = document.querySelectorAll("#frames rect");
		for (var i = 0; i < el.length; i++) {
			orig_load(el[i], "fill")
		}
		var params = get_params();
		delete params.s;
		history.replaceState(null, null, parse_params(params));
	}
	function search_prompt() {
		if (!searching) {
			var term = prompt("Enter a search term (regexp " +
			    "allowed, eg: ^ext4_)"
			    + (ignorecase ? ", ignoring case" : "")
			    + "\nPress Ctrl-i to toggle case sensitivity", "");
			if (term != null) search(term);
		} else {
			reset_search();
			searching = 0;
			currentSearchTerm = null;
			searchbtn.classList.remove("show");
			searchbtn.firstChild.nodeValue = "Search"
			matchedtxt.classList.add("hide");
			matchedtxt.firstChild.nodeValue = ""
		}
	}
	function search(term) {
		if (term) currentSearchTerm = term;

		var re = new RegExp(currentSearchTerm, ignorecase ? 'i' : '');
		var el = document.getElementById("frames").children;
		var matches = new Object();
		var maxwidth = 0;
		for (var i = 0; i < el.length; i++) {
			var e = el[i];
			var func = g_to_func(e);
			var rect = find_child(e, "rect");
			if (func == null || rect == null)
				continue;

			// Save max width. Only works as we have a root frame
			var w = parseFloat(rect.attributes.width.value);
			if (w > maxwidth)
				maxwidth = w;

			if (func.match(re)) {
				// highlight
				var x = parseFloat(rect.attributes.x.value);
				orig_save(rect, "fill");
				rect.attributes.fill.value = "rgb(230,0,230)";

				// remember matches
				if (matches[x] == undefined) {
					matches[x] = w;
				} else {
					if (w > matches[x]) {
						// overwrite with parent
						matches[x] = w;
					}
				}
				searching = 1;
			}
		}
		if (!searching)
			return;
		var params = get_params();
		params.s = currentSearchTerm;
		history.replaceState(null, null, parse_params(params));

		searchbtn.classList.add("show");
		searchbtn.firstChild.nodeValue = "Reset Search";

		// calculate percent matched, excluding vertical overlap
		var count = 0;
		var lastx = -1;
		var lastw = 0;
		var keys = Array();
		for (k in matches) {
			if (matches.hasOwnProperty(k))
				keys.push(k);
		}
		// sort the matched frames by their x location
		// ascending, then width descending
		keys.sort(function(a, b){
			return a - b;
		});
		// Step through frames saving only the biggest bottom-up frames
		// thanks to the sort order. This relies on the tree property
		// where children are always smaller than their parents.
		var fudge = 0.0001;	// JavaScript floating point
		for (var k in keys) {
			var x = parseFloat(keys[k]);
			var w = matches[keys[k]];
			if (x >= lastx + lastw - fudge) {
				count += w;
				lastx = x;
				lastw = w;
			}
		}
		// display matched percent
		matchedtxt.classList.remove("hide");
		var pct = 100 * count / maxwidth;
		if (pct != 100) pct = pct.toFixed(1)
		matchedtxt.firstChild.nodeValue = "Matched: " + pct + "%";
	}
]]>
</script>
<rect x="0.0" y="0" width="1200.0" height="326.0" fill="url(#background)"  />
<text id="title" x="600.00" y="24" >Flame Graph</text>
<text id="details" x="10.00" y="309" > </text>
<text id="unzoom" x="10.00" y="24" class="hide">Reset Zoom</text>
<text id="search" x="1090.00" y="24" >Search</text>
<text id="ignorecase" x="1174.00" y="24" >ic</text>
<text id="matched" x="1090.00" y="309" > </text>
<g id="frames">
<g >
<title>clock_nanosleep@GLIBC_2.2.5 (762,353 samples, 0.04%)</title><rect x="132.1" y="245" width="0.5" height="15.0" fill="rgb(240,165,39)" rx="2" ry="2" />
<text  x="135.10" y="255.5" ></text>
</g>
<g >
<title>do_brk_flags (349,414 samples, 0.02%)</title><rect x="29.1" y="149" width="0.2" height="15.0" fill="rgb(220,73,17)" rx="2" ry="2" />
<text  x="32.05" y="159.5" ></text>
</g>
<g >
<title>ondemand_readahead (219,229 samples, 0.01%)</title><rect x="11.6" y="69" width="0.2" height="15.0" fill="rgb(251,213,51)" rx="2" ry="2" />
<text  x="14.64" y="79.5" ></text>
</g>
<g >
<title>clear_page_erms (1,102,327 samples, 0.06%)</title><rect x="131.1" y="69" width="0.6" height="15.0" fill="rgb(229,113,27)" rx="2" ry="2" />
<text  x="134.07" y="79.5" ></text>
</g>
<g >
<title>dequeue_task (197,300 samples, 0.01%)</title><rect x="132.2" y="101" width="0.2" height="15.0" fill="rgb(244,183,43)" rx="2" ry="2" />
<text  x="135.24" y="111.5" ></text>
</g>
<g >
<title>orted (5,063,404 samples, 0.25%)</title><rect x="10.0" y="261" width="3.0" height="15.0" fill="rgb(212,33,8)" rx="2" ry="2" />
<text  x="13.00" y="271.5" ></text>
</g>
<g >
<title>solve_jacobi_original (1,725,501,279 samples, 86.81%)</title><rect x="165.4" y="245" width="1024.4" height="15.0" fill="rgb(224,88,21)" rx="2" ry="2" />
<text  x="168.39" y="255.5" >solve_jacobi_original</text>
</g>
<g >
<title>__cos_fma (903,144 samples, 0.05%)</title><rect x="64.4" y="245" width="0.6" height="15.0" fill="rgb(233,130,31)" rx="2" ry="2" />
<text  x="67.44" y="255.5" ></text>
</g>
<g >
<title>do_syscall_64 (200,233 samples, 0.01%)</title><rect x="12.4" y="197" width="0.1" height="15.0" fill="rgb(209,20,4)" rx="2" ry="2" />
<text  x="15.41" y="207.5" ></text>
</g>
<g >
<title>entry_SYSCALL_64_after_hwframe (975,703 samples, 0.05%)</title><rect x="28.7" y="213" width="0.6" height="15.0" fill="rgb(218,63,15)" rx="2" ry="2" />
<text  x="31.70" y="223.5" ></text>
</g>
<g >
<title>[unknown] (2,033,494 samples, 0.10%)</title><rect x="10.0" y="245" width="1.3" height="15.0" fill="rgb(210,24,5)" rx="2" ry="2" />
<text  x="13.05" y="255.5" ></text>
</g>
<g >
<title>mmap_region (212,605 samples, 0.01%)</title><rect x="130.4" y="117" width="0.1" height="15.0" fill="rgb(231,121,28)" rx="2" ry="2" />
<text  x="133.35" y="127.5" ></text>
</g>
<g >
<title>update_process_times (386,196 samples, 0.02%)</title><rect x="1189.2" y="117" width="0.2" height="15.0" fill="rgb(250,209,50)" rx="2" ry="2" />
<text  x="1192.21" y="127.5" ></text>
</g>
<g >
<title>top-stencil (1,982,524,383 samples, 99.75%)</title><rect x="13.0" y="261" width="1177.0" height="15.0" fill="rgb(212,33,7)" rx="2" ry="2" />
<text  x="16.01" y="271.5" >top-stencil</text>
</g>
<g >
<title>__handle_mm_fault (2,078,575 samples, 0.10%)</title><rect x="130.7" y="165" width="1.2" height="15.0" fill="rgb(207,9,2)" rx="2" ry="2" />
<text  x="133.68" y="175.5" ></text>
</g>
<g >
<title>__cos_fma (168,442 samples, 0.01%)</title><rect x="29.3" y="229" width="0.1" height="15.0" fill="rgb(233,130,31)" rx="2" ry="2" />
<text  x="32.30" y="239.5" ></text>
</g>
<g >
<title>filemap_fault (219,229 samples, 0.01%)</title><rect x="11.6" y="101" width="0.2" height="15.0" fill="rgb(219,68,16)" rx="2" ry="2" />
<text  x="14.64" y="111.5" ></text>
</g>
<g >
<title>all (1,987,588,392 samples, 100%)</title><rect x="10.0" y="277" width="1180.0" height="15.0" fill="rgb(213,39,9)" rx="2" ry="2" />
<text  x="13.00" y="287.5" ></text>
</g>
<g >
<title>unmap_vmas (285,626 samples, 0.01%)</title><rect x="28.9" y="117" width="0.2" height="15.0" fill="rgb(243,176,42)" rx="2" ry="2" />
<text  x="31.88" y="127.5" ></text>
</g>
<g >
<title>asm_exc_nmi (249,669 samples, 0.01%)</title><rect x="1188.6" y="229" width="0.1" height="15.0" fill="rgb(252,217,52)" rx="2" ry="2" />
<text  x="1191.60" y="239.5" ></text>
</g>
<g >
<title>__GI___open64_nocancel (253,819 samples, 0.01%)</title><rect x="12.0" y="229" width="0.2" height="15.0" fill="rgb(218,63,15)" rx="2" ry="2" />
<text  x="15.05" y="239.5" ></text>
</g>
<g >
<title>__sysvec_apic_timer_interrupt (1,287,062 samples, 0.06%)</title><rect x="1188.8" y="197" width="0.8" height="15.0" fill="rgb(242,173,41)" rx="2" ry="2" />
<text  x="1191.83" y="207.5" ></text>
</g>
<g >
<title>do_sys_openat2 (193,123 samples, 0.01%)</title><rect x="12.1" y="165" width="0.1" height="15.0" fill="rgb(253,221,52)" rx="2" ry="2" />
<text  x="15.07" y="175.5" ></text>
</g>
<g >
<title>asm_sysvec_apic_timer_interrupt (1,755,312 samples, 0.09%)</title><rect x="1188.7" y="229" width="1.1" height="15.0" fill="rgb(232,127,30)" rx="2" ry="2" />
<text  x="1191.75" y="239.5" ></text>
</g>
<g >
<title>__softirqentry_text_start (234,090 samples, 0.01%)</title><rect x="1189.6" y="181" width="0.1" height="15.0" fill="rgb(234,135,32)" rx="2" ry="2" />
<text  x="1192.59" y="191.5" ></text>
</g>
<g >
<title>exc_page_fault (2,290,543 samples, 0.12%)</title><rect x="130.6" y="213" width="1.3" height="15.0" fill="rgb(212,35,8)" rx="2" ry="2" />
<text  x="133.58" y="223.5" ></text>
</g>
<g >
<title>unmap_region (497,203 samples, 0.03%)</title><rect x="28.8" y="133" width="0.3" height="15.0" fill="rgb(219,64,15)" rx="2" ry="2" />
<text  x="31.76" y="143.5" ></text>
</g>
<g >
<title>_dl_close (170,998 samples, 0.01%)</title><rect x="29.6" y="229" width="0.1" height="15.0" fill="rgb(242,174,41)" rx="2" ry="2" />
<text  x="32.56" y="239.5" ></text>
</g>
<g >
<title>ksys_mmap_pgoff (200,233 samples, 0.01%)</title><rect x="12.4" y="165" width="0.1" height="15.0" fill="rgb(245,185,44)" rx="2" ry="2" />
<text  x="15.41" y="175.5" ></text>
</g>
<g >
<title>do_user_addr_fault (2,245,898 samples, 0.11%)</title><rect x="130.6" y="197" width="1.3" height="15.0" fill="rgb(228,108,25)" rx="2" ry="2" />
<text  x="133.58" y="207.5" ></text>
</g>
<g >
<title>__x64_sys_openat (221,470 samples, 0.01%)</title><rect x="12.0" y="181" width="0.2" height="15.0" fill="rgb(251,215,51)" rx="2" ry="2" />
<text  x="15.05" y="191.5" ></text>
</g>
<g >
<title>[libstencil.so] (14,298,374 samples, 0.72%)</title><rect x="19.7" y="245" width="8.5" height="15.0" fill="rgb(238,152,36)" rx="2" ry="2" />
<text  x="22.71" y="255.5" ></text>
</g>
<g >
<title>mesh_set_cell_kind (698,975 samples, 0.04%)</title><rect x="164.8" y="245" width="0.4" height="15.0" fill="rgb(243,175,41)" rx="2" ry="2" />
<text  x="167.81" y="255.5" ></text>
</g>
<g >
<title>handle_pte_fault (2,052,846 samples, 0.10%)</title><rect x="130.7" y="149" width="1.2" height="15.0" fill="rgb(217,57,13)" rx="2" ry="2" />
<text  x="133.70" y="159.5" ></text>
</g>
<g >
<title>__memset_avx2_unaligned_erms (590,209 samples, 0.03%)</title><rect x="11.5" y="245" width="0.4" height="15.0" fill="rgb(223,84,20)" rx="2" ry="2" />
<text  x="14.51" y="255.5" ></text>
</g>
<g >
<title>_dl_map_object (679,678 samples, 0.03%)</title><rect x="130.1" y="245" width="0.4" height="15.0" fill="rgb(248,199,47)" rx="2" ry="2" />
<text  x="133.09" y="255.5" ></text>
</g>
<g >
<title>entry_SYSCALL_64_after_hwframe (253,819 samples, 0.01%)</title><rect x="12.0" y="213" width="0.2" height="15.0" fill="rgb(218,63,15)" rx="2" ry="2" />
<text  x="15.05" y="223.5" ></text>
</g>
<g >
<title>__x64_sys_clock_nanosleep (485,566 samples, 0.02%)</title><rect x="132.1" y="197" width="0.3" height="15.0" fill="rgb(248,202,48)" rx="2" ry="2" />
<text  x="135.14" y="207.5" ></text>
</g>
<g >
<title>page_cache_ra_unbounded (219,229 samples, 0.01%)</title><rect x="11.6" y="53" width="0.2" height="15.0" fill="rgb(234,134,32)" rx="2" ry="2" />
<text  x="14.64" y="63.5" ></text>
</g>
<g >
<title>get_mem_cgroup_from_mm (227,521 samples, 0.01%)</title><rect x="130.9" y="101" width="0.1" height="15.0" fill="rgb(218,61,14)" rx="2" ry="2" />
<text  x="133.87" y="111.5" ></text>
</g>
<g >
<title>get_page_from_freelist (1,278,678 samples, 0.06%)</title><rect x="131.1" y="85" width="0.7" height="15.0" fill="rgb(252,218,52)" rx="2" ry="2" />
<text  x="134.05" y="95.5" ></text>
</g>
<g >
<title>strcmp (177,565 samples, 0.01%)</title><rect x="1189.8" y="245" width="0.1" height="15.0" fill="rgb(217,58,13)" rx="2" ry="2" />
<text  x="1192.81" y="255.5" ></text>
</g>
<g >
<title>_dl_map_object (902,950 samples, 0.05%)</title><rect x="12.0" y="245" width="0.5" height="15.0" fill="rgb(248,199,47)" rx="2" ry="2" />
<text  x="14.99" y="255.5" ></text>
</g>
<g >
<title>_dl_relocate_object (190,828 samples, 0.01%)</title><rect x="132.6" y="229" width="0.1" height="15.0" fill="rgb(231,120,28)" rx="2" ry="2" />
<text  x="135.62" y="239.5" ></text>
</g>
<g >
<title>tick_sched_timer (644,421 samples, 0.03%)</title><rect x="1189.1" y="149" width="0.3" height="15.0" fill="rgb(254,227,54)" rx="2" ry="2" />
<text  x="1192.05" y="159.5" ></text>
</g>
<g >
<title>do_mmap (212,605 samples, 0.01%)</title><rect x="130.4" y="133" width="0.1" height="15.0" fill="rgb(228,107,25)" rx="2" ry="2" />
<text  x="133.35" y="143.5" ></text>
</g>
<g >
<title>asm_exc_page_fault (2,314,966 samples, 0.12%)</title><rect x="130.6" y="229" width="1.3" height="15.0" fill="rgb(225,93,22)" rx="2" ry="2" />
<text  x="133.57" y="239.5" ></text>
</g>
<g >
<title>mesh_copy_core (54,971,285 samples, 2.77%)</title><rect x="30.2" y="229" width="32.6" height="15.0" fill="rgb(207,12,2)" rx="2" ry="2" />
<text  x="33.16" y="239.5" >me..</text>
</g>
<g >
<title>update_blocked_averages (234,090 samples, 0.01%)</title><rect x="1189.6" y="149" width="0.1" height="15.0" fill="rgb(240,163,38)" rx="2" ry="2" />
<text  x="1192.59" y="159.5" ></text>
</g>
<g >
<title>__alloc_pages (1,317,342 samples, 0.07%)</title><rect x="131.0" y="101" width="0.8" height="15.0" fill="rgb(233,129,30)" rx="2" ry="2" />
<text  x="134.03" y="111.5" ></text>
</g>
<g >
<title>do_syscall_64 (975,703 samples, 0.05%)</title><rect x="28.7" y="197" width="0.6" height="15.0" fill="rgb(209,20,4)" rx="2" ry="2" />
<text  x="31.70" y="207.5" ></text>
</g>
<g >
<title>__do_fault (219,229 samples, 0.01%)</title><rect x="11.6" y="117" width="0.2" height="15.0" fill="rgb(221,74,17)" rx="2" ry="2" />
<text  x="14.64" y="127.5" ></text>
</g>
<g >
<title>do_syscall_64 (639,697 samples, 0.03%)</title><rect x="132.1" y="213" width="0.4" height="15.0" fill="rgb(209,20,4)" rx="2" ry="2" />
<text  x="135.13" y="223.5" ></text>
</g>
<g >
<title>run_rebalance_domains (234,090 samples, 0.01%)</title><rect x="1189.6" y="165" width="0.1" height="15.0" fill="rgb(232,126,30)" rx="2" ry="2" />
<text  x="1192.59" y="175.5" ></text>
</g>
<g >
<title>do_mprotect_pkey (273,451 samples, 0.01%)</title><rect x="132.7" y="165" width="0.2" height="15.0" fill="rgb(252,218,52)" rx="2" ry="2" />
<text  x="135.73" y="175.5" ></text>
</g>
<g >
<title>_int_malloc (2,539,004 samples, 0.13%)</title><rect x="130.5" y="245" width="1.5" height="15.0" fill="rgb(215,47,11)" rx="2" ry="2" />
<text  x="133.51" y="255.5" ></text>
</g>
<g >
<title>setup_mesh_cell_values (2,047,396 samples, 0.10%)</title><rect x="63.0" y="229" width="1.2" height="15.0" fill="rgb(252,217,51)" rx="2" ry="2" />
<text  x="65.97" y="239.5" ></text>
</g>
<g >
<title>dl_open_worker_begin (567,151 samples, 0.03%)</title><rect x="132.6" y="245" width="0.3" height="15.0" fill="rgb(233,129,31)" rx="2" ry="2" />
<text  x="135.58" y="255.5" ></text>
</g>
<g >
<title>_int_free (386,328 samples, 0.02%)</title><rect x="29.8" y="229" width="0.2" height="15.0" fill="rgb(247,196,46)" rx="2" ry="2" />
<text  x="32.76" y="239.5" ></text>
</g>
<g >
<title>alloc_pages_vma (1,317,342 samples, 0.07%)</title><rect x="131.0" y="117" width="0.8" height="15.0" fill="rgb(253,224,53)" rx="2" ry="2" />
<text  x="134.03" y="127.5" ></text>
</g>
<g >
<title>entry_SYSCALL_64_after_hwframe (650,682 samples, 0.03%)</title><rect x="132.1" y="229" width="0.4" height="15.0" fill="rgb(218,63,15)" rx="2" ry="2" />
<text  x="135.13" y="239.5" ></text>
</g>
<g >
<title>perf_event_mmap (170,313 samples, 0.01%)</title><rect x="29.1" y="133" width="0.1" height="15.0" fill="rgb(229,112,26)" rx="2" ry="2" />
<text  x="32.08" y="143.5" ></text>
</g>
<g >
<title>do_syscall_64 (311,596 samples, 0.02%)</title><rect x="132.7" y="197" width="0.2" height="15.0" fill="rgb(209,20,4)" rx="2" ry="2" />
<text  x="135.73" y="207.5" ></text>
</g>
<g >
<title>page_cache_async_ra (219,229 samples, 0.01%)</title><rect x="11.6" y="85" width="0.2" height="15.0" fill="rgb(210,24,5)" rx="2" ry="2" />
<text  x="14.64" y="95.5" ></text>
</g>
<g >
<title>asm_exc_page_fault (409,377 samples, 0.02%)</title><rect x="11.6" y="229" width="0.2" height="15.0" fill="rgb(225,93,22)" rx="2" ry="2" />
<text  x="14.57" y="239.5" ></text>
</g>
<g >
<title>do_syscall_64 (248,278 samples, 0.01%)</title><rect x="130.3" y="197" width="0.2" height="15.0" fill="rgb(209,20,4)" rx="2" ry="2" />
<text  x="133.33" y="207.5" ></text>
</g>
<g >
<title>tlb_flush_mmu (191,607 samples, 0.01%)</title><rect x="28.9" y="37" width="0.2" height="15.0" fill="rgb(214,45,10)" rx="2" ry="2" />
<text  x="31.94" y="47.5" ></text>
</g>
<g >
<title>exc_page_fault (319,722 samples, 0.02%)</title><rect x="11.6" y="213" width="0.2" height="15.0" fill="rgb(212,35,8)" rx="2" ry="2" />
<text  x="14.63" y="223.5" ></text>
</g>
<g >
<title>do_lookup_x (535,453 samples, 0.03%)</title><rect x="132.9" y="245" width="0.3" height="15.0" fill="rgb(245,187,44)" rx="2" ry="2" />
<text  x="135.92" y="255.5" ></text>
</g>
<g >
<title>unmap_page_range (285,626 samples, 0.01%)</title><rect x="28.9" y="85" width="0.2" height="15.0" fill="rgb(206,5,1)" rx="2" ry="2" />
<text  x="31.88" y="95.5" ></text>
</g>
<g >
<title>handle_mm_fault (319,722 samples, 0.02%)</title><rect x="11.6" y="181" width="0.2" height="15.0" fill="rgb(234,135,32)" rx="2" ry="2" />
<text  x="14.63" y="191.5" ></text>
</g>
<g >
<title>exc_nmi (249,669 samples, 0.01%)</title><rect x="1188.6" y="213" width="0.1" height="15.0" fill="rgb(239,159,38)" rx="2" ry="2" />
<text  x="1191.60" y="223.5" ></text>
</g>
<g >
<title>[unknown] (60,801,370 samples, 3.06%)</title><rect x="28.2" y="245" width="36.1" height="15.0" fill="rgb(210,24,5)" rx="2" ry="2" />
<text  x="31.20" y="255.5" >[un..</text>
</g>
<g >
<title>perf_event_mmap_event (170,313 samples, 0.01%)</title><rect x="29.1" y="117" width="0.1" height="15.0" fill="rgb(238,154,36)" rx="2" ry="2" />
<text  x="32.08" y="127.5" ></text>
</g>
<g >
<title>handle_mm_fault (2,194,200 samples, 0.11%)</title><rect x="130.6" y="181" width="1.3" height="15.0" fill="rgb(234,135,32)" rx="2" ry="2" />
<text  x="133.62" y="191.5" ></text>
</g>
<g >
<title>__brk (1,001,447 samples, 0.05%)</title><rect x="28.7" y="229" width="0.6" height="15.0" fill="rgb(225,94,22)" rx="2" ry="2" />
<text  x="31.68" y="239.5" ></text>
</g>
<g >
<title>do_nanosleep (395,115 samples, 0.02%)</title><rect x="132.2" y="149" width="0.2" height="15.0" fill="rgb(253,220,52)" rx="2" ry="2" />
<text  x="135.18" y="159.5" ></text>
</g>
<g >
<title>do_mmap (200,233 samples, 0.01%)</title><rect x="12.4" y="133" width="0.1" height="15.0" fill="rgb(228,107,25)" rx="2" ry="2" />
<text  x="15.41" y="143.5" ></text>
</g>
<g >
<title>do_user_addr_fault (319,722 samples, 0.02%)</title><rect x="11.6" y="197" width="0.2" height="15.0" fill="rgb(228,108,25)" rx="2" ry="2" />
<text  x="14.63" y="207.5" ></text>
</g>
<g >
<title>common_nsleep (431,025 samples, 0.02%)</title><rect x="132.2" y="181" width="0.2" height="15.0" fill="rgb(227,105,25)" rx="2" ry="2" />
<text  x="135.16" y="191.5" ></text>
</g>
<g >
<title>__handle_mm_fault (319,722 samples, 0.02%)</title><rect x="11.6" y="165" width="0.2" height="15.0" fill="rgb(207,9,2)" rx="2" ry="2" />
<text  x="14.63" y="175.5" ></text>
</g>
<g >
<title>__x64_sys_mmap (248,278 samples, 0.01%)</title><rect x="130.3" y="181" width="0.2" height="15.0" fill="rgb(223,83,19)" rx="2" ry="2" />
<text  x="133.33" y="191.5" ></text>
</g>
<g >
<title>schedule (361,047 samples, 0.02%)</title><rect x="132.2" y="133" width="0.2" height="15.0" fill="rgb(254,229,54)" rx="2" ry="2" />
<text  x="135.20" y="143.5" ></text>
</g>
<g >
<title>__mem_cgroup_charge (452,933 samples, 0.02%)</title><rect x="130.7" y="117" width="0.3" height="15.0" fill="rgb(218,60,14)" rx="2" ry="2" />
<text  x="133.74" y="127.5" ></text>
</g>
<g >
<title>__do_sys_brk (963,602 samples, 0.05%)</title><rect x="28.7" y="165" width="0.6" height="15.0" fill="rgb(217,58,13)" rx="2" ry="2" />
<text  x="31.71" y="175.5" ></text>
</g>
<g >
<title>__x64_sys_mprotect (273,451 samples, 0.01%)</title><rect x="132.7" y="181" width="0.2" height="15.0" fill="rgb(209,21,5)" rx="2" ry="2" />
<text  x="135.73" y="191.5" ></text>
</g>
<g >
<title>hrtimer_nanosleep (428,461 samples, 0.02%)</title><rect x="132.2" y="165" width="0.2" height="15.0" fill="rgb(237,147,35)" rx="2" ry="2" />
<text  x="135.16" y="175.5" ></text>
</g>
<g >
<title>zap_pmd_range.isra.0 (285,626 samples, 0.01%)</title><rect x="28.9" y="69" width="0.2" height="15.0" fill="rgb(244,180,43)" rx="2" ry="2" />
<text  x="31.88" y="79.5" ></text>
</g>
<g >
<title>ksys_mmap_pgoff (248,278 samples, 0.01%)</title><rect x="130.3" y="165" width="0.2" height="15.0" fill="rgb(245,185,44)" rx="2" ry="2" />
<text  x="133.33" y="175.5" ></text>
</g>
<g >
<title>hrtimer_interrupt (1,287,062 samples, 0.06%)</title><rect x="1188.8" y="181" width="0.8" height="15.0" fill="rgb(228,109,26)" rx="2" ry="2" />
<text  x="1191.83" y="191.5" ></text>
</g>
<g >
<title>entry_SYSCALL_64_after_hwframe (248,278 samples, 0.01%)</title><rect x="130.3" y="213" width="0.2" height="15.0" fill="rgb(218,63,15)" rx="2" ry="2" />
<text  x="133.33" y="223.5" ></text>
</g>
<g >
<title>do_lookup_x (203,283 samples, 0.01%)</title><rect x="12.7" y="245" width="0.1" height="15.0" fill="rgb(245,187,44)" rx="2" ry="2" />
<text  x="15.73" y="255.5" ></text>
</g>
<g >
<title>tlb_finish_mmu (211,577 samples, 0.01%)</title><rect x="28.8" y="117" width="0.1" height="15.0" fill="rgb(251,212,50)" rx="2" ry="2" />
<text  x="31.76" y="127.5" ></text>
</g>
<g >
<title>charge_memcg (225,412 samples, 0.01%)</title><rect x="130.7" y="101" width="0.2" height="15.0" fill="rgb(242,170,40)" rx="2" ry="2" />
<text  x="133.74" y="111.5" ></text>
</g>
<g >
<title>_dl_map_object_from_fd (199,174 samples, 0.01%)</title><rect x="130.2" y="229" width="0.1" height="15.0" fill="rgb(249,205,49)" rx="2" ry="2" />
<text  x="133.17" y="239.5" ></text>
</g>
<g >
<title>do_syscall_64 (253,819 samples, 0.01%)</title><rect x="12.0" y="197" width="0.2" height="15.0" fill="rgb(209,20,4)" rx="2" ry="2" />
<text  x="15.05" y="207.5" ></text>
</g>
<g >
<title>init_meshes (1,971,033 samples, 0.10%)</title><rect x="163.5" y="245" width="1.2" height="15.0" fill="rgb(216,53,12)" rx="2" ry="2" />
<text  x="166.50" y="255.5" ></text>
</g>
<g >
<title>__schedule (355,557 samples, 0.02%)</title><rect x="132.2" y="117" width="0.2" height="15.0" fill="rgb(227,103,24)" rx="2" ry="2" />
<text  x="135.20" y="127.5" ></text>
</g>
<g >
<title>__hrtimer_run_queues (1,022,804 samples, 0.05%)</title><rect x="1188.8" y="165" width="0.6" height="15.0" fill="rgb(237,150,35)" rx="2" ry="2" />
<text  x="1191.83" y="175.5" ></text>
</g>
<g >
<title>__ieee754_exp_fma (108,978,398 samples, 5.48%)</title><rect x="65.0" y="245" width="64.7" height="15.0" fill="rgb(248,201,48)" rx="2" ry="2" />
<text  x="67.98" y="255.5" >__ieee7..</text>
</g>
<g >
<title>unmap_single_vma (285,626 samples, 0.01%)</title><rect x="28.9" y="101" width="0.2" height="15.0" fill="rgb(225,93,22)" rx="2" ry="2" />
<text  x="31.88" y="111.5" ></text>
</g>
<g >
<title>_dl_map_object_from_fd (219,463 samples, 0.01%)</title><rect x="12.2" y="229" width="0.1" height="15.0" fill="rgb(249,205,49)" rx="2" ry="2" />
<text  x="15.22" y="239.5" ></text>
</g>
<g >
<title>__sin_fma (331,908 samples, 0.02%)</title><rect x="129.9" y="245" width="0.2" height="15.0" fill="rgb(251,211,50)" rx="2" ry="2" />
<text  x="132.86" y="255.5" ></text>
</g>
<g >
<title>do_fault (300,041 samples, 0.02%)</title><rect x="11.6" y="133" width="0.2" height="15.0" fill="rgb(248,200,47)" rx="2" ry="2" />
<text  x="14.64" y="143.5" ></text>
</g>
<g >
<title>tick_sched_handle (386,196 samples, 0.02%)</title><rect x="1189.2" y="133" width="0.2" height="15.0" fill="rgb(219,68,16)" rx="2" ry="2" />
<text  x="1192.21" y="143.5" ></text>
</g>
<g >
<title>mmap64 (248,278 samples, 0.01%)</title><rect x="130.3" y="229" width="0.2" height="15.0" fill="rgb(220,70,16)" rx="2" ry="2" />
<text  x="133.33" y="239.5" ></text>
</g>
<g >
<title>entry_SYSCALL_64_after_hwframe (311,596 samples, 0.02%)</title><rect x="132.7" y="213" width="0.2" height="15.0" fill="rgb(218,63,15)" rx="2" ry="2" />
<text  x="135.73" y="223.5" ></text>
</g>
<g >
<title>dequeue_task_fair (175,665 samples, 0.01%)</title><rect x="132.3" y="85" width="0.1" height="15.0" fill="rgb(230,119,28)" rx="2" ry="2" />
<text  x="135.25" y="95.5" ></text>
</g>
<g >
<title>try_charge_memcg (188,742 samples, 0.01%)</title><rect x="130.8" y="85" width="0.1" height="15.0" fill="rgb(210,27,6)" rx="2" ry="2" />
<text  x="133.76" y="95.5" ></text>
</g>
<g >
<title>[libm.so.6] (11,183,119 samples, 0.56%)</title><rect x="13.0" y="245" width="6.7" height="15.0" fill="rgb(208,16,4)" rx="2" ry="2" />
<text  x="16.04" y="255.5" ></text>
</g>
<g >
<title>vm_mmap_pgoff (212,605 samples, 0.01%)</title><rect x="130.4" y="149" width="0.1" height="15.0" fill="rgb(237,150,35)" rx="2" ry="2" />
<text  x="133.35" y="159.5" ></text>
</g>
<g >
<title>exp@@GLIBC_2.29 (50,872,992 samples, 2.56%)</title><rect x="133.3" y="245" width="30.2" height="15.0" fill="rgb(230,115,27)" rx="2" ry="2" />
<text  x="136.28" y="255.5" >ex..</text>
</g>
<g >
<title>zap_pte_range (285,626 samples, 0.01%)</title><rect x="28.9" y="53" width="0.2" height="15.0" fill="rgb(231,120,28)" rx="2" ry="2" />
<text  x="31.88" y="63.5" ></text>
</g>
<g >
<title>vm_mmap_pgoff (200,233 samples, 0.01%)</title><rect x="12.4" y="149" width="0.1" height="15.0" fill="rgb(237,150,35)" rx="2" ry="2" />
<text  x="15.41" y="159.5" ></text>
</g>
<g >
<title>mmap64 (200,233 samples, 0.01%)</title><rect x="12.4" y="229" width="0.1" height="15.0" fill="rgb(220,70,16)" rx="2" ry="2" />
<text  x="15.41" y="239.5" ></text>
</g>
<g >
<title>mmap_region (174,737 samples, 0.01%)</title><rect x="12.4" y="117" width="0.1" height="15.0" fill="rgb(231,121,28)" rx="2" ry="2" />
<text  x="15.42" y="127.5" ></text>
</g>
<g >
<title>__memset_avx2_unaligned_erms (203,405 samples, 0.01%)</title><rect x="10.6" y="229" width="0.1" height="15.0" fill="rgb(223,84,20)" rx="2" ry="2" />
<text  x="13.63" y="239.5" ></text>
</g>
<g >
<title>irq_exit_rcu (234,090 samples, 0.01%)</title><rect x="1189.6" y="197" width="0.1" height="15.0" fill="rgb(254,227,54)" rx="2" ry="2" />
<text  x="1192.59" y="207.5" ></text>
</g>
<g >
<title>do_anonymous_page (2,040,796 samples, 0.10%)</title><rect x="130.7" y="133" width="1.2" height="15.0" fill="rgb(238,155,37)" rx="2" ry="2" />
<text  x="133.71" y="143.5" ></text>
</g>
<g >
<title>mprotect (311,596 samples, 0.02%)</title><rect x="132.7" y="229" width="0.2" height="15.0" fill="rgb(241,169,40)" rx="2" ry="2" />
<text  x="135.73" y="239.5" ></text>
</g>
<g >
<title>__x64_sys_mmap (200,233 samples, 0.01%)</title><rect x="12.4" y="181" width="0.1" height="15.0" fill="rgb(223,83,19)" rx="2" ry="2" />
<text  x="15.41" y="191.5" ></text>
</g>
<g >
<title>__x64_sys_brk (963,602 samples, 0.05%)</title><rect x="28.7" y="181" width="0.6" height="15.0" fill="rgb(220,72,17)" rx="2" ry="2" />
<text  x="31.71" y="191.5" ></text>
</g>
<g >
<title>handle_pte_fault (300,041 samples, 0.02%)</title><rect x="11.6" y="149" width="0.2" height="15.0" fill="rgb(217,57,13)" rx="2" ry="2" />
<text  x="14.64" y="159.5" ></text>
</g>
<g >
<title>__do_munmap (561,661 samples, 0.03%)</title><rect x="28.7" y="149" width="0.4" height="15.0" fill="rgb(234,136,32)" rx="2" ry="2" />
<text  x="31.72" y="159.5" ></text>
</g>
<g >
<title>entry_SYSCALL_64_after_hwframe (200,233 samples, 0.01%)</title><rect x="12.4" y="213" width="0.1" height="15.0" fill="rgb(218,63,15)" rx="2" ry="2" />
<text  x="15.41" y="223.5" ></text>
</g>
<g >
<title>sysvec_apic_timer_interrupt (1,755,312 samples, 0.09%)</title><rect x="1188.7" y="213" width="1.1" height="15.0" fill="rgb(220,69,16)" rx="2" ry="2" />
<text  x="1191.75" y="223.5" ></text>
</g>
</g>
</svg>
